LisuBosa-BlackItalic.ufo
<glyph name="exclam" format="2">
  <advance width="321"/>
  <unicode hex="0021"/>
  <outline>
    <contour>
      <point x="123" y="-11" type="curve" smooth="yes"/>
      <point x="166" y="-11"/>
      <point x="203" y="22"/>
      <point x="203" y="66" type="curve" smooth="yes"/>
      <point x="203" y="102"/>
      <point x="176" y="132"/>
      <point x="136" y="132" type="curve" smooth="yes"/>
      <point x="93" y="132"/>
      <point x="55" y="98"/>
      <point x="55" y="53" type="curve" smooth="yes"/>
      <point x="55" y="17"/>
      <point x="83" y="-11"/>
    </contour>
    <contour>
      <point x="186" y="497" type="curve" smooth="yes"/>
      <point x="192" y="520"/>
      <point x="200" y="547"/>
      <point x="205" y="553" type="curve" smooth="yes"/>
      <point x="212" y="562"/>
      <point x="224" y="569"/>
      <point x="263" y="569" type="curve" smooth="yes"/>
      <point x="300" y="569"/>
      <point x="324" y="554"/>
      <point x="324" y="540" type="curve" smooth="yes"/>
      <point x="324" y="526"/>
      <point x="313" y="493"/>
      <point x="306" y="474" type="curve" smooth="yes"/>
      <point x="268" y="369"/>
      <point x="253" y="317"/>
      <point x="221" y="228" type="curve" smooth="yes"/>
      <point x="211" y="200"/>
      <point x="193" y="191"/>
      <point x="166" y="191" type="curve" smooth="yes"/>
      <point x="140" y="191"/>
      <point x="113" y="198"/>
      <point x="113" y="223" type="curve" smooth="yes"/>
      <point x="113" y="230"/>
      <point x="117" y="247"/>
      <point x="124" y="274" type="curve" smooth="yes"/>
      <point x="151" y="374"/>
      <point x="161" y="405"/>
    </contour>
  </outline>
</glyph>
<glyph name="quotedbl" format="2">
  <advance width="378"/>
  <unicode hex="0022"/>
  <outline>
    <contour>
      <point x="147" y="582" type="line"/>
      <point x="257" y="582" type="line"/>
      <point x="197" y="359" type="line"/>
      <point x="121" y="359" type="line"/>
    </contour>
    <contour>
      <point x="315" y="582" type="line"/>
      <point x="426" y="582" type="line"/>
      <point x="363" y="359" type="line"/>
      <point x="287" y="359" type="line"/>
    </contour>
  </outline>
</glyph>
<glyph name="percent" format="2">
  <advance width="800"/>
  <unicode hex="0025"/>
  <outline>
    <contour>
      <point x="218" y="-17" type="line"/>
      <point x="667" y="574" type="line"/>
      <point x="629" y="603" type="line"/>
      <point x="180" y="11" type="line"/>
    </contour>
    <contour>
      <point x="184" y="221" type="curve" smooth="yes"/>
      <point x="278" y="221"/>
      <point x="362" y="318"/>
      <point x="362" y="467" type="curve" smooth="yes"/>
      <point x="362" y="552"/>
      <point x="322" y="598"/>
      <point x="252" y="598" type="curve" smooth="yes"/>
      <point x="154" y="598"/>
      <point x="70" y="494"/>
      <point x="70" y="351" type="curve" smooth="yes"/>
      <point x="70" y="262"/>
      <point x="117" y="221"/>
    </contour>
    <contour>
      <point x="185" y="253" type="curve" smooth="yes"/>
      <point x="167" y="253"/>
      <point x="150" y="266"/>
      <point x="150" y="327" type="curve" smooth="yes"/>
      <point x="150" y="448"/>
      <point x="202" y="566"/>
      <point x="249" y="566" type="curve" smooth="yes"/>
      <point x="266" y="566"/>
      <point x="283" y="552"/>
      <point x="283" y="495" type="curve" smooth="yes"/>
      <point x="283" y="391"/>
      <point x="234" y="253"/>
    </contour>
    <contour>
      <point x="595" y="-7" type="curve" smooth="yes"/>
      <point x="689" y="-7"/>
      <point x="772" y="90"/>
      <point x="772" y="238" type="curve" smooth="yes"/>
      <point x="772" y="323"/>
      <point x="732" y="369"/>
      <point x="663" y="369" type="curve" smooth="yes"/>
      <point x="564" y="369"/>
      <point x="481" y="264"/>
      <point x="481" y="122" type="curve" smooth="yes"/>
      <point x="481" y="33"/>
      <point x="528" y="-7"/>
    </contour>
    <contour>
      <point x="597" y="23" type="curve" smooth="yes"/>
      <point x="577" y="23"/>
      <point x="561" y="37"/>
      <point x="561" y="98" type="curve" smooth="yes"/>
      <point x="561" y="218"/>
      <point x="612" y="337"/>
      <point x="659" y="337" type="curve" smooth="yes"/>
      <point x="677" y="337"/>
      <point x="693" y="323"/>
      <point x="693" y="266" type="curve" smooth="yes"/>
      <point x="693" y="162"/>
      <point x="645" y="23"/>
    </contour>
  </outline>
</glyph>
<glyph name="parenright" format="2">
  <advance width="294"/>
  <unicode hex="0029"/>
  <guideline x="173" y="173" angle="259.0037"/>
  <guideline x="283" y="173" angle="259.0037"/>
  <outline>
    <contour>
      <point x="299" y="253" type="curve" smooth="yes"/>
      <point x="340" y="464"/>
      <point x="298" y="626"/>
      <point x="145" y="717" type="curve"/>
      <point x="128" y="628" type="line"/>
      <point x="238" y="558"/>
      <point x="224" y="430"/>
      <point x="189" y="253" type="curve" smooth="yes"/>
      <point x="158" y="95"/>
      <point x="134" y="18"/>
      <point x="-4" y="-52" type="curve"/>
      <point x="-22" y="-142" type="line"/>
      <point x="167" y="-51"/>
      <point x="258" y="42"/>
    </contour>
  </outline>
</glyph>
<glyph name="asterisk" format="2">
  <advance width="358"/>
  <unicode hex="002A"/>
  <outline>
    <contour>
      <point x="281" y="553" type="curve" smooth="yes"/>
      <point x="250" y="553"/>
      <point x="238" y="547"/>
      <point x="234" y="536" type="curve" smooth="yes"/>
      <point x="231" y="528"/>
      <point x="231" y="513"/>
      <point x="228" y="495" type="curve" smooth="yes"/>
      <point x="221" y="452"/>
      <point x="215" y="426"/>
      <point x="206" y="397" type="curve" smooth="yes"/>
      <point x="204" y="391"/>
      <point x="200" y="376"/>
      <point x="200" y="369" type="curve" smooth="yes"/>
      <point x="200" y="365"/>
      <point x="204" y="363"/>
      <point x="210" y="363" type="curve" smooth="yes"/>
      <point x="225" y="363"/>
      <point x="259" y="405"/>
      <point x="269" y="418" type="curve" smooth="yes"/>
      <point x="297" y="453"/>
      <point x="328" y="496"/>
      <point x="328" y="527" type="curve" smooth="yes"/>
      <point x="328" y="541"/>
      <point x="311" y="553"/>
    </contour>
    <contour>
      <point x="390" y="380" type="curve" smooth="yes"/>
      <point x="390" y="400"/>
      <point x="376" y="444"/>
      <point x="353" y="444" type="curve" smooth="yes"/>
      <point x="344" y="444"/>
      <point x="332" y="440"/>
      <point x="314" y="437" type="curve" smooth="yes"/>
      <point x="271" y="429"/>
      <point x="244" y="428"/>
      <point x="214" y="427" type="curve" smooth="yes"/>
      <point x="208" y="427"/>
      <point x="190" y="425"/>
      <point x="186" y="424" type="curve" smooth="yes"/>
      <point x="183" y="423"/>
      <point x="182" y="421"/>
      <point x="182" y="418" type="curve" smooth="yes"/>
      <point x="182" y="407"/>
      <point x="238" y="380"/>
      <point x="254" y="374" type="curve" smooth="yes"/>
      <point x="287" y="362"/>
      <point x="326" y="349"/>
      <point x="355" y="349" type="curve" smooth="yes"/>
      <point x="378" y="349"/>
      <point x="390" y="357"/>
    </contour>
    <contour>
      <point x="291" y="265" type="curve" smooth="yes"/>
      <point x="307" y="277"/>
      <point x="313" y="286"/>
      <point x="313" y="295" type="curve" smooth="yes"/>
      <point x="313" y="304"/>
      <point x="298" y="324"/>
      <point x="290" y="341" type="curve" smooth="yes"/>
      <point x="271" y="381"/>
      <point x="262" y="408"/>
      <point x="253" y="436" type="curve" smooth="yes"/>
      <point x="251" y="442"/>
      <point x="243" y="465"/>
      <point x="237" y="465" type="curve" smooth="yes"/>
      <point x="224" y="465"/>
      <point x="214" y="400"/>
      <point x="214" y="348" type="curve" smooth="yes"/>
      <point x="214" y="313"/>
      <point x="217" y="278"/>
      <point x="231" y="259" type="curve" smooth="yes"/>
      <point x="234" y="254"/>
      <point x="240" y="249"/>
      <point x="251" y="249" type="curve" smooth="yes"/>
      <point x="268" y="249"/>
      <point x="277" y="255"/>
    </contour>
    <contour>
      <point x="107" y="308" type="curve" smooth="yes"/>
      <point x="124" y="295"/>
      <point x="136" y="292"/>
      <point x="142" y="292" type="curve" smooth="yes"/>
      <point x="149" y="292"/>
      <point x="153" y="293"/>
      <point x="158" y="298" type="curve" smooth="yes"/>
      <point x="162" y="301"/>
      <point x="170" y="313"/>
      <point x="183" y="326" type="curve" smooth="yes"/>
      <point x="214" y="356"/>
      <point x="235" y="374"/>
      <point x="259" y="392" type="curve" smooth="yes"/>
      <point x="263" y="395"/>
      <point x="281" y="409"/>
      <point x="281" y="414" type="curve" smooth="yes"/>
      <point x="281" y="419"/>
      <point x="278" y="423"/>
      <point x="271" y="423" type="curve" smooth="yes"/>
      <point x="255" y="423"/>
      <point x="209" y="416"/>
      <point x="196" y="412" type="curve" smooth="yes"/>
      <point x="152" y="399"/>
      <point x="102" y="384"/>
      <point x="84" y="359" type="curve" smooth="yes"/>
      <point x="82" y="356"/>
      <point x="81" y="352"/>
      <point x="81" y="348" type="curve" smooth="yes"/>
      <point x="81" y="337"/>
      <point x="91" y="320"/>
    </contour>
    <contour>
      <point x="111" y="486" type="curve" smooth="yes"/>
      <point x="106" y="473"/>
      <point x="104" y="463"/>
      <point x="104" y="455" type="curve" smooth="yes"/>
      <point x="104" y="446"/>
      <point x="107" y="440"/>
      <point x="113" y="436" type="curve" smooth="yes"/>
      <point x="119" y="430"/>
      <point x="133" y="426"/>
      <point x="150" y="417" type="curve" smooth="yes"/>
      <point x="188" y="397"/>
      <point x="211" y="384"/>
      <point x="236" y="366" type="curve" smooth="yes"/>
      <point x="241" y="362"/>
      <point x="254" y="352"/>
      <point x="261" y="352" type="curve" smooth="yes"/>
      <point x="267" y="352"/>
      <point x="270" y="357"/>
      <point x="270" y="362" type="curve" smooth="yes"/>
      <point x="270" y="375"/>
      <point x="241" y="420"/>
      <point x="233" y="432" type="curve" smooth="yes"/>
      <point x="216" y="459"/>
      <point x="175" y="523"/>
      <point x="146" y="523" type="curve" smooth="yes"/>
      <point x="132" y="523"/>
      <point x="121" y="510"/>
    </contour>
  </outline>
</glyph>
<glyph name="comma" format="2">
  <advance width="292"/>
  <unicode hex="002C"/>
  <outline>
    <contour>
      <point x="8" y="-148" type="line"/>
      <point x="117" y="-117"/>
      <point x="190" y="-28"/>
      <point x="190" y="72" type="curve" smooth="yes"/>
      <point x="190" y="88"/>
      <point x="187" y="99"/>
      <point x="181" y="112" type="curve"/>
      <point x="164" y="125"/>
      <point x="145" y="132"/>
      <point x="124" y="132" type="curve" smooth="yes"/>
      <point x="78" y="132"/>
      <point x="51" y="97"/>
      <point x="51" y="62" type="curve" smooth="yes"/>
      <point x="51" y="40"/>
      <point x="61" y="14"/>
      <point x="83" y="0" type="curve" smooth="yes"/>
      <point x="126" y="-34" type="line"/>
      <point x="123" y="0" type="line"/>
      <point x="92" y="-57"/>
      <point x="53" y="-92"/>
      <point x="-4" y="-114" type="curve"/>
    </contour>
  </outline>
</glyph>
<glyph name="hyphen" format="2">
  <advance width="389"/>
  <unicode hex="002D"/>
  <outline>
    <contour>
      <point x="35" y="276" type="curve" smooth="yes"/>
      <point x="30" y="263"/>
      <point x="27" y="253"/>
      <point x="27" y="238" type="curve" smooth="yes"/>
      <point x="27" y="213"/>
      <point x="50" y="207"/>
      <point x="77" y="207" type="curve" smooth="yes"/>
      <point x="117" y="207"/>
      <point x="142" y="208"/>
      <point x="224" y="208" type="curve" smooth="yes"/>
      <point x="258" y="208"/>
      <point x="288" y="207"/>
      <point x="315" y="207" type="curve" smooth="yes"/>
      <point x="333" y="207"/>
      <point x="349" y="208"/>
      <point x="358" y="213" type="curve" smooth="yes"/>
      <point x="369" y="218"/>
      <point x="374" y="224"/>
      <point x="382" y="236" type="curve" smooth="yes"/>
      <point x="390" y="249"/>
      <point x="394" y="267"/>
      <point x="394" y="283" type="curve" smooth="yes"/>
      <point x="394" y="306"/>
      <point x="387" y="317"/>
      <point x="347" y="317" type="curve" smooth="yes"/>
      <point x="316" y="317"/>
      <point x="270" y="315"/>
      <point x="209" y="315" type="curve" smooth="yes"/>
      <point x="150" y="315"/>
      <point x="115" y="316"/>
      <point x="89" y="316" type="curve" smooth="yes"/>
      <point x="61" y="316"/>
      <point x="46" y="303"/>
    </contour>
  </outline>
</glyph>
<glyph name="period" format="2">
  <advance width="310"/>
  <unicode hex="002E"/>
  <outline>
    <contour>
      <point x="123" y="-11" type="curve" smooth="yes"/>
      <point x="166" y="-11"/>
      <point x="203" y="22"/>
      <point x="203" y="66" type="curve" smooth="yes"/>
      <point x="203" y="102"/>
      <point x="176" y="132"/>
      <point x="136" y="132" type="curve" smooth="yes"/>
      <point x="93" y="132"/>
      <point x="55" y="98"/>
      <point x="55" y="53" type="curve" smooth="yes"/>
      <point x="55" y="17"/>
      <point x="83" y="-11"/>
    </contour>
  </outline>
</glyph>
<glyph name="slash" format="2">
  <advance width="344"/>
  <unicode hex="002F"/>
  <outline>
    <contour>
      <point x="302" y="667" type="line"/>
      <point x="8" y="-120" type="line"/>
      <point x="84" y="-120" type="line"/>
      <point x="378" y="667" type="line"/>
    </contour>
  </outline>
</glyph>
<glyph name="zero" format="2">
  <advance width="494"/>
  <unicode hex="0030"/>
  <outline>
    <contour>
      <point x="470" y="203"/>
      <point x="389" y="-8"/>
      <point x="207" y="-8" type="curve" smooth="yes"/>
      <point x="112" y="-8"/>
      <point x="60" y="70"/>
      <point x="60" y="160" type="curve" smooth="yes"/>
      <point x="60" y="327"/>
      <point x="140" y="539"/>
      <point x="322" y="539" type="curve" smooth="yes"/>
      <point x="417" y="539"/>
      <point x="470" y="460"/>
      <point x="470" y="370" type="curve" smooth="yes"/>
    </contour>
    <contour>
      <point x="299" y="106"/>
      <point x="344" y="286"/>
      <point x="344" y="367" type="curve" smooth="yes"/>
      <point x="344" y="399"/>
      <point x="335" y="424"/>
      <point x="307" y="424" type="curve" smooth="yes"/>
      <point x="230" y="424"/>
      <point x="186" y="240"/>
      <point x="186" y="162" type="curve" smooth="yes"/>
      <point x="186" y="130"/>
      <point x="197" y="106"/>
      <point x="223" y="106" type="curve" smooth="yes"/>
    </contour>
  </outline>
</glyph>
<glyph name="four" format="2">
  <advance width="494"/>
  <unicode hex="0034"/>
  <outline>
    <contour>
      <point x="411" y="532" type="curve" smooth="yes"/>
      <point x="372" y="532"/>
      <point x="347" y="527"/>
      <point x="329" y="508" type="curve" smooth="yes"/>
      <point x="266" y="441"/>
      <point x="96" y="267"/>
      <point x="23" y="208" type="curve" smooth="yes"/>
      <point x="12" y="199"/>
      <point x="10" y="189"/>
      <point x="10" y="174" type="curve" smooth="yes"/>
      <point x="10" y="169"/>
      <point x="11" y="160"/>
      <point x="14" y="151" type="curve" smooth="yes"/>
      <point x="22" y="127"/>
      <point x="38" y="111"/>
      <point x="66" y="111" type="curve" smooth="yes"/>
      <point x="84" y="111"/>
      <point x="122" y="112"/>
      <point x="162" y="112" type="curve" smooth="yes"/>
      <point x="197" y="112"/>
      <point x="204" y="113"/>
      <point x="239" y="113" type="curve"/>
      <point x="230" y="80"/>
      <point x="213" y="30"/>
      <point x="213" y="21" type="curve" smooth="yes"/>
      <point x="213" y="8"/>
      <point x="221" y="-9"/>
      <point x="275" y="-9" type="curve" smooth="yes"/>
      <point x="308" y="-9"/>
      <point x="335" y="0"/>
      <point x="340" y="20" type="curve" smooth="yes"/>
      <point x="347" y="49"/>
      <point x="352" y="69"/>
      <point x="357" y="87" type="curve" smooth="yes"/>
      <point x="361" y="101"/>
      <point x="362" y="105"/>
      <point x="364" y="112" type="curve"/>
      <point x="390" y="112"/>
      <point x="408" y="111"/>
      <point x="431" y="111" type="curve" smooth="yes"/>
      <point x="447" y="111"/>
      <point x="454" y="112"/>
      <point x="458" y="116" type="curve" smooth="yes"/>
      <point x="461" y="119"/>
      <point x="465" y="124"/>
      <point x="465" y="133" type="curve" smooth="yes"/>
      <point x="465" y="154"/>
      <point x="456" y="176"/>
      <point x="438" y="194" type="curve" smooth="yes"/>
      <point x="424" y="208"/>
      <point x="402" y="212"/>
      <point x="394" y="212" type="curve" smooth="yes"/>
      <point x="390" y="212" type="line"/>
      <point x="415" y="302"/>
      <point x="440" y="381"/>
      <point x="457" y="439" type="curve" smooth="yes"/>
      <point x="464" y="462"/>
      <point x="473" y="492"/>
      <point x="473" y="506" type="curve" smooth="yes"/>
      <point x="473" y="520"/>
      <point x="451" y="532"/>
    </contour>
    <contour>
      <point x="114" y="173" type="line"/>
      <point x="195" y="243"/>
      <point x="314" y="356"/>
      <point x="353" y="415" type="curve"/>
      <point x="332" y="428" type="line"/>
      <point x="308" y="340"/>
      <point x="282" y="254"/>
      <point x="268" y="211" type="curve"/>
      <point x="222" y="211"/>
      <point x="211" y="211"/>
      <point x="175" y="211" type="curve" smooth="yes"/>
      <point x="92" y="211" type="line"/>
    </contour>
  </outline>
</glyph>
<glyph name="seven" format="2">
  <advance width="494"/>
  <unicode hex="0037"/>
  <guideline x="9" y="233" angle="71"/>
  <outline>
    <contour>
      <point x="113" y="462" type="curve" smooth="yes"/>
      <point x="124" y="442"/>
      <point x="144" y="425"/>
      <point x="177" y="425" type="curve" smooth="yes"/>
      <point x="225" y="425"/>
      <point x="316" y="426"/>
      <point x="366" y="426" type="curve" smooth="yes"/>
      <point x="411" y="426"/>
      <point x="439" y="424"/>
      <point x="484" y="424" type="curve" smooth="yes"/>
      <point x="490" y="424"/>
      <point x="505" y="428"/>
      <point x="510" y="431" type="curve" smooth="yes"/>
      <point x="517" y="435"/>
      <point x="524" y="443"/>
      <point x="524" y="454" type="curve" smooth="yes"/>
      <point x="524" y="469"/>
      <point x="517" y="488"/>
      <point x="509" y="500" type="curve" smooth="yes"/>
      <point x="498" y="517"/>
      <point x="484" y="525"/>
      <point x="476" y="528" type="curve" smooth="yes"/>
      <point x="468" y="531"/>
      <point x="457" y="533"/>
      <point x="425" y="533" type="curve" smooth="yes"/>
      <point x="386" y="533"/>
      <point x="368" y="532"/>
      <point x="320" y="532" type="curve" smooth="yes"/>
      <point x="262" y="532"/>
      <point x="172" y="533"/>
      <point x="132" y="533" type="curve" smooth="yes"/>
      <point x="110" y="533"/>
      <point x="102" y="515"/>
      <point x="102" y="501" type="curve" smooth="yes"/>
      <point x="102" y="490"/>
      <point x="103" y="480"/>
    </contour>
    <contour>
      <point x="166" y="-8" type="curve" smooth="yes"/>
      <point x="190" y="-8"/>
      <point x="223" y="-2"/>
      <point x="234" y="20" type="curve" smooth="yes"/>
      <point x="242" y="36"/>
      <point x="250" y="60"/>
      <point x="259" y="80" type="curve" smooth="yes"/>
      <point x="297" y="167"/>
      <point x="375" y="302"/>
      <point x="488" y="410" type="curve" smooth="yes"/>
      <point x="498" y="419"/>
      <point x="510" y="430"/>
      <point x="516" y="436" type="curve" smooth="yes"/>
      <point x="521" y="441"/>
      <point x="522" y="449"/>
      <point x="522" y="452" type="curve" smooth="yes"/>
      <point x="522" y="476"/>
      <point x="488" y="514"/>
      <point x="460" y="514" type="curve" smooth="yes"/>
      <point x="447" y="514"/>
      <point x="427" y="508"/>
      <point x="417" y="498" type="curve" smooth="yes"/>
      <point x="290" y="373"/>
      <point x="188" y="216"/>
      <point x="125" y="80" type="curve" smooth="yes"/>
      <point x="114" y="56"/>
      <point x="102" y="29"/>
      <point x="102" y="20" type="curve" smooth="yes"/>
      <point x="102" y="3"/>
      <point x="125" y="-8"/>
    </contour>
  </outline>
</glyph>
<glyph name="colon" format="2">
  <advance width="292"/>
  <unicode hex="003A"/>
  <outline>
    <contour>
      <point x="115" y="-11" type="curve" smooth="yes"/>
      <point x="158" y="-11"/>
      <point x="195" y="22"/>
      <point x="195" y="66" type="curve" smooth="yes"/>
      <point x="195" y="102"/>
      <point x="168" y="132"/>
      <point x="128" y="132" type="curve" smooth="yes"/>
      <point x="85" y="132"/>
      <point x="47" y="98"/>
      <point x="47" y="53" type="curve" smooth="yes"/>
      <point x="47" y="17"/>
      <point x="75" y="-11"/>
    </contour>
    <contour>
      <point x="184" y="305" type="curve" smooth="yes"/>
      <point x="226" y="305"/>
      <point x="264" y="339"/>
      <point x="264" y="384" type="curve" smooth="yes"/>
      <point x="264" y="420"/>
      <point x="236" y="449"/>
      <point x="196" y="449" type="curve" smooth="yes"/>
      <point x="153" y="449"/>
      <point x="115" y="415"/>
      <point x="115" y="370" type="curve" smooth="yes"/>
      <point x="115" y="335"/>
      <point x="144" y="305"/>
    </contour>
  </outline>
</glyph>
<glyph name="less" format="2">
  <advance width="495"/>
  <unicode hex="003C"/>
  <outline>
    <contour>
      <point x="69" y="271" type="line"/>
      <point x="420" y="81" type="line"/>
      <point x="454" y="146" type="line"/>
      <point x="117" y="318" type="line"/>
      <point x="117" y="281" type="line"/>
      <point x="454" y="452" type="line"/>
      <point x="420" y="517" type="line"/>
      <point x="69" y="327" type="line"/>
    </contour>
  </outline>
</glyph>
<glyph name="question" format="2">
  <advance width="435"/>
  <unicode hex="003F"/>
  <outline>
    <contour>
      <point x="123" y="-11" type="curve" smooth="yes"/>
      <point x="166" y="-11"/>
      <point x="203" y="22"/>
      <point x="203" y="66" type="curve" smooth="yes"/>
      <point x="203" y="102"/>
      <point x="176" y="132"/>
      <point x="136" y="132" type="curve" smooth="yes"/>
      <point x="93" y="132"/>
      <point x="55" y="98"/>
      <point x="55" y="53" type="curve" smooth="yes"/>
      <point x="55" y="17"/>
      <point x="83" y="-11"/>
    </contour>
    <contour>
      <point x="415" y="449" type="curve" smooth="yes"/>
      <point x="415" y="519"/>
      <point x="345" y="570"/>
      <point x="268" y="570" type="curve" smooth="yes"/>
      <point x="223" y="570"/>
      <point x="185" y="556"/>
      <point x="156" y="537" type="curve" smooth="yes"/>
      <point x="129" y="519"/>
      <point x="110" y="499"/>
      <point x="110" y="484" type="curve" smooth="yes"/>
      <point x="110" y="457"/>
      <point x="146" y="429"/>
      <point x="169" y="429" type="curve" smooth="yes"/>
      <point x="175" y="429"/>
      <point x="180" y="431"/>
      <point x="185" y="434" type="curve" smooth="yes"/>
      <point x="193" y="439"/>
      <point x="206" y="452"/>
      <point x="216" y="458" type="curve" smooth="yes"/>
      <point x="227" y="465"/>
      <point x="239" y="468"/>
      <point x="253" y="468" type="curve" smooth="yes"/>
      <point x="274" y="468"/>
      <point x="290" y="455"/>
      <point x="290" y="437" type="curve" smooth="yes"/>
      <point x="290" y="411"/>
      <point x="259" y="387"/>
      <point x="219" y="357" type="curve" smooth="yes"/>
      <point x="181" y="329"/>
      <point x="155" y="303"/>
      <point x="135" y="278" type="curve" smooth="yes"/>
      <point x="119" y="258"/>
      <point x="112" y="241"/>
      <point x="112" y="233" type="curve" smooth="yes"/>
      <point x="112" y="204"/>
      <point x="162" y="194"/>
      <point x="182" y="194" type="curve" smooth="yes"/>
      <point x="215" y="194"/>
      <point x="223" y="201"/>
      <point x="230" y="212" type="curve" smooth="yes"/>
      <point x="237" y="223"/>
      <point x="247" y="238"/>
      <point x="256" y="249" type="curve" smooth="yes"/>
      <point x="266" y="262"/>
      <point x="281" y="276"/>
      <point x="325" y="306" type="curve" smooth="yes"/>
      <point x="375" y="340"/>
      <point x="415" y="377"/>
    </contour>
  </outline>
</glyph>
<glyph name="at" format="2">
  <advance width="794"/>
  <unicode hex="0040"/>
  <outline>
    <contour>
      <point x="307" y="36" type="curve" smooth="yes"/>
      <point x="364" y="36"/>
      <point x="432" y="92"/>
      <point x="484" y="160" type="curve"/>
      <point x="479" y="189" type="line"/>
      <point x="431" y="134"/>
      <point x="398" y="111"/>
      <point x="368" y="111" type="curve" smooth="yes"/>
      <point x="340" y="111"/>
      <point x="322" y="133"/>
      <point x="322" y="184" type="curve" smooth="yes"/>
      <point x="322" y="300"/>
      <point x="399" y="396"/>
      <point x="459" y="396" type="curve" smooth="yes"/>
      <point x="483" y="396"/>
      <point x="507" y="385"/>
      <point x="527" y="369" type="curve"/>
      <point x="574" y="402" type="line"/>
      <point x="551" y="434"/>
      <point x="526" y="455"/>
      <point x="492" y="455" type="curve" smooth="yes"/>
      <point x="377" y="455"/>
      <point x="223" y="290"/>
      <point x="223" y="140" type="curve" smooth="yes"/>
      <point x="223" y="67"/>
      <point x="264" y="36"/>
    </contour>
    <contour>
      <point x="534" y="36" type="curve" smooth="yes"/>
      <point x="632" y="36"/>
      <point x="780" y="144"/>
      <point x="780" y="330" type="curve" smooth="yes"/>
      <point x="780" y="479"/>
      <point x="691" y="603"/>
      <point x="499" y="603" type="curve" smooth="yes"/>
      <point x="237" y="603"/>
      <point x="53" y="394"/>
      <point x="53" y="146" type="curve" smooth="yes"/>
      <point x="53" y="-22"/>
      <point x="166" y="-141"/>
      <point x="352" y="-141" type="curve" smooth="yes"/>
      <point x="414" y="-141"/>
      <point x="478" y="-126"/>
      <point x="533" y="-102" type="curve"/>
      <point x="523" y="-64" type="line"/>
      <point x="476" y="-80"/>
      <point x="430" y="-88"/>
      <point x="378" y="-88" type="curve" smooth="yes"/>
      <point x="216" y="-88"/>
      <point x="120" y="1"/>
      <point x="120" y="160" type="curve" smooth="yes"/>
      <point x="120" y="377"/>
      <point x="276" y="561"/>
      <point x="493" y="561" type="curve" smooth="yes"/>
      <point x="637" y="561"/>
      <point x="721" y="471"/>
      <point x="721" y="331" type="curve" smooth="yes"/>
      <point x="721" y="177"/>
      <point x="624" y="100"/>
      <point x="575" y="100" type="curve" smooth="yes"/>
      <point x="547" y="100"/>
      <point x="540" y="115"/>
      <point x="550" y="156" type="curve" smooth="yes"/>
      <point x="616" y="449" type="line"/>
      <point x="602" y="460" type="line"/>
      <point x="509" y="409" type="line"/>
      <point x="452" y="149" type="line" smooth="yes"/>
      <point x="438" y="87"/>
      <point x="460" y="36"/>
    </contour>
  </outline>
</glyph>
<glyph name="B" format="2">
  <advance width="580"/>
  <unicode hex="0042"/>
  <anchor x="342" y="632" name="aboveUC"/>
  <anchor x="267" y="-20" name="belowLC"/>
  <outline>
    <contour>
      <point x="4" y="0" type="line"/>
      <point x="135" y="0" type="line"/>
      <point x="147" y="58" type="line"/>
      <point x="136" y="58" type="line"/>
      <point x="12" y="45" type="line"/>
    </contour>
    <contour>
      <point x="78" y="0" type="line"/>
      <point x="197" y="0" type="line"/>
      <point x="213" y="94"/>
      <point x="230" y="190"/>
      <point x="247" y="285" type="curve" smooth="yes"/>
      <point x="309" y="609" type="line"/>
      <point x="188" y="609" type="line"/>
      <point x="173" y="514"/>
      <point x="157" y="418"/>
      <point x="138" y="323" type="curve" smooth="yes"/>
    </contour>
    <contour>
      <point x="103" y="563" type="line"/>
      <point x="224" y="550" type="line"/>
      <point x="238" y="550" type="line"/>
      <point x="249" y="609" type="line"/>
      <point x="113" y="609" type="line"/>
    </contour>
    <contour>
      <point x="137" y="0" type="line"/>
      <point x="279" y="0" type="line" smooth="yes"/>
      <point x="461" y="0"/>
      <point x="543" y="78"/>
      <point x="543" y="169" type="curve" smooth="yes"/>
      <point x="543" y="253"/>
      <point x="480" y="322"/>
      <point x="348" y="327" type="curve"/>
      <point x="333" y="313" type="line"/>
      <point x="473" y="316"/>
      <point x="552" y="385"/>
      <point x="552" y="471" type="curve" smooth="yes"/>
      <point x="552" y="544"/>
      <point x="500" y="609"/>
      <point x="358" y="609" type="curve" smooth="yes"/>
      <point x="251" y="609" type="line"/>
      <point x="241" y="560" type="line"/>
      <point x="335" y="560" type="line" smooth="yes"/>
      <point x="404" y="560"/>
      <point x="437" y="522"/>
      <point x="437" y="464" type="curve" smooth="yes"/>
      <point x="437" y="389"/>
      <point x="390" y="342"/>
      <point x="294" y="342" type="curve" smooth="yes"/>
      <point x="200" y="342" type="line"/>
      <point x="192" y="296" type="line"/>
      <point x="303" y="296" type="line" smooth="yes"/>
      <point x="376" y="296"/>
      <point x="424" y="256"/>
      <point x="424" y="184" type="curve" smooth="yes"/>
      <point x="424" y="104"/>
      <point x="372" y="47"/>
      <point x="264" y="47" type="curve" smooth="yes"/>
      <point x="146" y="47" type="line"/>
    </contour>
  </outline>
</glyph>
<glyph name="F" format="2">
  <advance width="510"/>
  <unicode hex="0046"/>
  <anchor x="356" y="632" name="aboveUC"/>
  <anchor x="142" y="-20" name="belowLC"/>
  <outline>
    <contour>
      <point x="4" y="0" type="line"/>
      <point x="283" y="0" type="line"/>
      <point x="291" y="45" type="line"/>
      <point x="170" y="58" type="line"/>
      <point x="138" y="58" type="line"/>
      <point x="12" y="45" type="line"/>
    </contour>
    <contour>
      <point x="78" y="0" type="line"/>
      <point x="197" y="0" type="line"/>
      <point x="213" y="94"/>
      <point x="230" y="190"/>
      <point x="247" y="285" type="curve" smooth="yes"/>
      <point x="309" y="609" type="line"/>
      <point x="188" y="609" type="line"/>
      <point x="173" y="514"/>
      <point x="157" y="418"/>
      <point x="138" y="323" type="curve" smooth="yes"/>
    </contour>
    <contour>
      <point x="103" y="563" type="line"/>
      <point x="224" y="550" type="line"/>
      <point x="238" y="550" type="line"/>
      <point x="249" y="609" type="line"/>
      <point x="113" y="609" type="line"/>
    </contour>
    <contour>
      <point x="190" y="287" type="line"/>
      <point x="391" y="287" type="line"/>
      <point x="400" y="336" type="line"/>
      <point x="200" y="336" type="line"/>
    </contour>
    <contour>
      <point x="239" y="558" type="line"/>
      <point x="522" y="558" type="line"/>
      <point x="475" y="609" type="line"/>
      <point x="473" y="448" type="line"/>
      <point x="537" y="448" type="line"/>
      <point x="562" y="609" type="line"/>
      <point x="249" y="609" type="line"/>
    </contour>
    <contour>
      <point x="363" y="201" type="line"/>
      <point x="409" y="201" type="line"/>
      <point x="448" y="415" type="line"/>
      <point x="402" y="415" type="line"/>
      <point x="370" y="324" type="line"/>
      <point x="366" y="302" type="line"/>
    </contour>
  </outline>
</glyph>
<glyph name="N" format="2">
  <advance width="653"/>
  <unicode hex="004E"/>
  <anchor x="391" y="632" name="aboveUC"/>
  <anchor x="316" y="-20" name="belowLC"/>
  <outline>
    <contour>
      <point x="-2" y="0" type="line"/>
      <point x="223" y="0" type="line"/>
      <point x="231" y="45" type="line"/>
      <point x="122" y="58" type="line"/>
      <point x="100" y="58" type="line"/>
      <point x="6" y="45" type="line"/>
    </contour>
    <contour>
      <point x="71" y="0" type="line"/>
      <point x="124" y="0" type="line"/>
      <point x="234" y="583" type="line"/>
      <point x="187" y="609" type="line"/>
    </contour>
    <contour>
      <point x="468" y="-4" type="line"/>
      <point x="526" y="-4" type="line"/>
      <point x="543" y="103" type="line"/>
      <point x="273" y="609" type="line"/>
      <point x="104" y="609" type="line"/>
      <point x="95" y="563" type="line"/>
      <point x="202" y="552" type="line"/>
      <point x="156" y="577" type="line"/>
    </contour>
    <contour>
      <point x="476" y="563" type="line"/>
      <point x="593" y="550" type="line"/>
      <point x="615" y="550" type="line"/>
      <point x="704" y="563" type="line"/>
      <point x="713" y="609" type="line"/>
      <point x="485" y="609" type="line"/>
    </contour>
    <contour>
      <point x="526" y="-4" type="line"/>
      <point x="640" y="609" type="line"/>
      <point x="587" y="609" type="line"/>
      <point x="484" y="52" type="line"/>
    </contour>
  </outline>
</glyph>
<glyph name="R" format="2">
  <advance width="606"/>
  <unicode hex="0052"/>
  <anchor x="348" y="632" name="aboveUC"/>
  <anchor x="340" y="-20" name="belowLC"/>
  <outline>
    <contour>
      <point x="4" y="0" type="line"/>
      <point x="275" y="0" type="line"/>
      <point x="284" y="45" type="line"/>
      <point x="162" y="58" type="line"/>
      <point x="138" y="58" type="line"/>
      <point x="12" y="45" type="line"/>
    </contour>
    <contour>
      <point x="78" y="0" type="line"/>
      <point x="197" y="0" type="line"/>
      <point x="213" y="94"/>
      <point x="230" y="190"/>
      <point x="247" y="285" type="curve" smooth="yes"/>
      <point x="309" y="609" type="line"/>
      <point x="188" y="609" type="line"/>
      <point x="173" y="514"/>
      <point x="157" y="418"/>
      <point x="138" y="323" type="curve" smooth="yes"/>
    </contour>
    <contour>
      <point x="103" y="563" type="line"/>
      <point x="224" y="550" type="line"/>
      <point x="239" y="550" type="line"/>
      <point x="250" y="609" type="line"/>
      <point x="113" y="609" type="line"/>
    </contour>
    <contour>
      <point x="504" y="-11" type="curve" smooth="yes"/>
      <point x="539" y="-11"/>
      <point x="556" y="-8"/>
      <point x="589" y="0" type="curve"/>
      <point x="597" y="45" type="line"/>
      <point x="444" y="63" type="line"/>
      <point x="525" y="22" type="line"/>
      <point x="483" y="161" type="line" smooth="yes"/>
      <point x="458" y="254"/>
      <point x="441" y="295"/>
      <point x="329" y="310" type="curve"/>
      <point x="333" y="291" type="line"/>
      <point x="503" y="301"/>
      <point x="570" y="380"/>
      <point x="570" y="466" type="curve" smooth="yes"/>
      <point x="570" y="554"/>
      <point x="503" y="609"/>
      <point x="384" y="609" type="curve" smooth="yes"/>
      <point x="251" y="609" type="line"/>
      <point x="241" y="559" type="line"/>
      <point x="353" y="559" type="line" smooth="yes"/>
      <point x="417" y="559"/>
      <point x="453" y="528"/>
      <point x="453" y="469" type="curve" smooth="yes"/>
      <point x="453" y="393"/>
      <point x="412" y="331"/>
      <point x="301" y="329" type="curve" smooth="yes"/>
      <point x="199" y="328" type="line"/>
      <point x="190" y="280" type="line"/>
      <point x="271" y="280" type="line" smooth="yes"/>
      <point x="323" y="280"/>
      <point x="341" y="259"/>
      <point x="358" y="193" type="curve" smooth="yes"/>
      <point x="390" y="72" type="line" smooth="yes"/>
      <point x="403" y="10"/>
      <point x="437" y="-11"/>
    </contour>
  </outline>
</glyph>
<glyph name="S" format="2">
  <advance width="458"/>
  <unicode hex="0053"/>
  <anchor x="322" y="632" name="aboveUC"/>
  <anchor x="197" y="0" name="baseLC"/>
  <anchor x="199" y="-20" name="belowLC"/>
  <outline>
    <contour>
      <point x="24" y="28" type="line"/>
      <point x="67" y="0"/>
      <point x="134" y="-15"/>
      <point x="195" y="-15" type="curve" smooth="yes"/>
      <point x="328" y="-15"/>
      <point x="421" y="56"/>
      <point x="421" y="170" type="curve" smooth="yes"/>
      <point x="421" y="234"/>
      <point x="392" y="286"/>
      <point x="293" y="358" type="curve" smooth="yes"/>
      <point x="225" y="406"/>
      <point x="203" y="438"/>
      <point x="203" y="480" type="curve" smooth="yes"/>
      <point x="203" y="539"/>
      <point x="253" y="573"/>
      <point x="325" y="573" type="curve" smooth="yes"/>
      <point x="358" y="573"/>
      <point x="387" y="565"/>
      <point x="426" y="540" type="curve"/>
      <point x="379" y="586" type="line"/>
      <point x="387" y="450" type="line"/>
      <point x="458" y="450" type="line"/>
      <point x="475" y="579" type="line"/>
      <point x="430" y="609"/>
      <point x="369" y="624"/>
      <point x="311" y="624" type="curve" smooth="yes"/>
      <point x="186" y="624"/>
      <point x="97" y="552"/>
      <point x="97" y="446" type="curve" smooth="yes"/>
      <point x="97" y="384"/>
      <point x="123" y="327"/>
      <point x="220" y="256" type="curve" smooth="yes"/>
      <point x="296" y="201"/>
      <point x="309" y="168"/>
      <point x="309" y="131" type="curve" smooth="yes"/>
      <point x="309" y="72"/>
      <point x="267" y="35"/>
      <point x="190" y="35" type="curve" smooth="yes"/>
      <point x="151" y="35"/>
      <point x="103" y="46"/>
      <point x="69" y="65" type="curve"/>
      <point x="122" y="21" type="line"/>
      <point x="109" y="162" type="line"/>
      <point x="40" y="162" type="line"/>
    </contour>
  </outline>
</glyph>
<glyph name="X" format="2">
  <advance width="600"/>
  <unicode hex="0058"/>
  <anchor x="404" y="632" name="aboveUC"/>
  <anchor x="252" y="-20" name="belowLC"/>
  <outline>
    <contour>
      <point x="-7" y="0" type="line"/>
      <point x="200" y="0" type="line"/>
      <point x="208" y="45" type="line"/>
      <point x="120" y="58" type="line"/>
      <point x="100" y="58" type="line"/>
      <point x="0" y="45" type="line"/>
    </contour>
    <contour>
      <point x="30" y="0" type="line"/>
      <point x="93" y="0" type="line"/>
      <point x="333" y="298" type="line"/>
      <point x="299" y="319" type="line"/>
    </contour>
    <contour>
      <point x="93" y="563" type="line"/>
      <point x="215" y="550" type="line"/>
      <point x="238" y="550" type="line"/>
      <point x="361" y="563" type="line"/>
      <point x="370" y="609" type="line"/>
      <point x="103" y="609" type="line"/>
    </contour>
    <contour>
      <point x="391" y="0" type="line"/>
      <point x="517" y="0" type="line"/>
      <point x="266" y="609" type="line"/>
      <point x="139" y="609" type="line"/>
    </contour>
    <contour>
      <point x="291" y="0" type="line"/>
      <point x="563" y="0" type="line"/>
      <point x="572" y="45" type="line"/>
      <point x="453" y="58" type="line"/>
      <point x="430" y="58" type="line"/>
      <point x="299" y="45" type="line"/>
    </contour>
    <contour>
      <point x="323" y="322" type="line"/>
      <point x="356" y="299" type="line"/>
      <point x="617" y="609" type="line"/>
      <point x="554" y="609" type="line"/>
    </contour>
    <contour>
      <point x="440" y="563" type="line"/>
      <point x="528" y="550" type="line"/>
      <point x="548" y="550" type="line"/>
      <point x="647" y="563" type="line"/>
      <point x="656" y="609" type="line"/>
      <point x="448" y="609" type="line"/>
    </contour>
  </outline>
</glyph>
<glyph name="underscore" format="2">
  <advance width="489"/>
  <unicode hex="005F"/>
  <outline>
    <contour>
      <point x="8" y="-64" type="line"/>
      <point x="420" y="-64" type="line"/>
      <point x="420" y="9" type="line"/>
      <point x="8" y="9" type="line"/>
    </contour>
  </outline>
</glyph>
<glyph name="e" format="2">
  <advance width="411"/>
  <unicode hex="0065"/>
  <anchor x="315" y="471" name="aboveLC"/>
  <anchor x="197" y="-20" name="belowLC"/>
  <anchor x="249" y="0" name="ogonek"/>
  <outline>
    <contour>
      <point x="199" y="-12" type="curve" smooth="yes"/>
      <point x="287" y="-12"/>
      <point x="356" y="51"/>
      <point x="394" y="119" type="curve"/>
      <point x="369" y="138" type="line"/>
      <point x="342" y="103"/>
      <point x="300" y="70"/>
      <point x="245" y="70" type="curve" smooth="yes"/>
      <point x="187" y="70"/>
      <point x="152" y="106"/>
      <point x="152" y="187" type="curve" smooth="yes"/>
      <point x="152" y="304"/>
      <point x="236" y="408"/>
      <point x="291" y="408" type="curve" smooth="yes"/>
      <point x="315" y="408"/>
      <point x="332" y="391"/>
      <point x="332" y="359" type="curve" smooth="yes"/>
      <point x="332" y="304"/>
      <point x="278" y="232"/>
      <point x="108" y="189" type="curve"/>
      <point x="111" y="154" type="line"/>
      <point x="333" y="205"/>
      <point x="422" y="285"/>
      <point x="422" y="360" type="curve" smooth="yes"/>
      <point x="422" y="418"/>
      <point x="381" y="455"/>
      <point x="308" y="455" type="curve" smooth="yes"/>
      <point x="161" y="455"/>
      <point x="46" y="314"/>
      <point x="46" y="159" type="curve" smooth="yes"/>
      <point x="46" y="47"/>
      <point x="109" y="-12"/>
    </contour>
  </outline>
</glyph>
<glyph name="f" format="2">
  <advance width="299"/>
  <unicode hex="0066"/>
  <anchor x="343" y="685" name="aboveLC"/>
  <anchor x="-18" y="-225" name="belowLC"/>
  <outline>
    <contour>
      <point x="349" y="681" type="curve" smooth="yes"/>
      <point x="256" y="681"/>
      <point x="160" y="611"/>
      <point x="133" y="426" type="curve" smooth="yes"/>
      <point x="113" y="293"/>
      <point x="95" y="167"/>
      <point x="75" y="39" type="curve" smooth="yes"/>
      <point x="61" y="-37"/>
      <point x="49" y="-89"/>
      <point x="30" y="-129" type="curve" smooth="yes"/>
      <point x="15" y="-160"/>
      <point x="0" y="-177"/>
      <point x="-16" y="-193" type="curve"/>
      <point x="8" y="-190" type="line"/>
      <point x="-18" y="-156" type="line" smooth="yes"/>
      <point x="-38" y="-128"/>
      <point x="-61" y="-110"/>
      <point x="-91" y="-110" type="curve" smooth="yes"/>
      <point x="-119" y="-110"/>
      <point x="-138" y="-129"/>
      <point x="-141" y="-156" type="curve"/>
      <point x="-125" y="-202"/>
      <point x="-82" y="-222"/>
      <point x="-32" y="-222" type="curve" smooth="yes"/>
      <point x="4" y="-222"/>
      <point x="48" y="-205"/>
      <point x="86" y="-167" type="curve" smooth="yes"/>
      <point x="132" y="-121"/>
      <point x="158" y="-53"/>
      <point x="175" y="39" type="curve" smooth="yes"/>
      <point x="201" y="171"/>
      <point x="220" y="317"/>
      <point x="242" y="457" type="curve" smooth="yes"/>
      <point x="265" y="609"/>
      <point x="304" y="648"/>
      <point x="360" y="665" type="curve"/>
      <point x="312" y="659" type="line"/>
      <point x="341" y="616" type="line" smooth="yes"/>
      <point x="364" y="584"/>
      <point x="383" y="566"/>
      <point x="412" y="566" type="curve" smooth="yes"/>
      <point x="436" y="566"/>
      <point x="459" y="584"/>
      <point x="464" y="612" type="curve"/>
      <point x="454" y="651"/>
      <point x="405" y="681"/>
    </contour>
    <contour>
      <point x="48" y="392" type="line"/>
      <point x="160" y="392" type="line"/>
      <point x="344" y="387" type="line"/>
      <point x="353" y="441" type="line"/>
      <point x="168" y="441" type="line"/>
      <point x="168" y="446" type="line"/>
      <point x="57" y="433" type="line"/>
    </contour>
  </outline>
</glyph>
<glyph name="g" format="2">
  <advance width="473"/>
  <unicode hex="0067"/>
  <anchor x="280" y="471" name="aboveLC"/>
  <anchor x="162" y="-218" name="belowLC"/>
  <outline>
    <contour>
      <point x="42" y="60" type="curve" smooth="yes"/>
      <point x="42" y="27"/>
      <point x="66" y="-7"/>
      <point x="124" y="-13" type="curve" smooth="yes"/>
      <point x="231" y="-23" type="line" smooth="yes"/>
      <point x="306" y="-32"/>
      <point x="330" y="-56"/>
      <point x="330" y="-88" type="curve" smooth="yes"/>
      <point x="330" y="-137"/>
      <point x="275" y="-168"/>
      <point x="185" y="-168" type="curve" smooth="yes"/>
      <point x="111" y="-168"/>
      <point x="66" y="-139"/>
      <point x="66" y="-92" type="curve" smooth="yes"/>
      <point x="66" y="-54"/>
      <point x="91" y="-26"/>
      <point x="134" y="0" type="curve"/>
      <point x="116" y="11" type="line"/>
      <point x="46" y="-13"/>
      <point x="-25" y="-63"/>
      <point x="-25" y="-123" type="curve" smooth="yes"/>
      <point x="-25" y="-185"/>
      <point x="38" y="-218"/>
      <point x="138" y="-218" type="curve" smooth="yes"/>
      <point x="303" y="-218"/>
      <point x="426" y="-140"/>
      <point x="426" y="-42" type="curve" smooth="yes"/>
      <point x="426" y="13"/>
      <point x="391" y="54"/>
      <point x="289" y="65" type="curve" smooth="yes"/>
      <point x="176" y="76" type="line" smooth="yes"/>
      <point x="140" y="80"/>
      <point x="131" y="98"/>
      <point x="131" y="114" type="curve" smooth="yes"/>
      <point x="131" y="127"/>
      <point x="134" y="139"/>
      <point x="170" y="172" type="curve"/>
      <point x="154" y="186" type="line"/>
      <point x="85" y="147"/>
      <point x="42" y="112"/>
    </contour>
    <contour>
      <point x="237" y="174" type="curve" smooth="yes"/>
      <point x="194" y="174"/>
      <point x="175" y="221"/>
      <point x="175" y="281" type="curve" smooth="yes"/>
      <point x="175" y="363"/>
      <point x="202" y="417"/>
      <point x="253" y="418" type="curve" smooth="yes"/>
      <point x="287" y="419"/>
      <point x="313" y="380"/>
      <point x="313" y="316" type="curve" smooth="yes"/>
      <point x="313" y="216"/>
      <point x="280" y="175"/>
    </contour>
    <contour>
      <point x="73" y="269" type="curve" smooth="yes"/>
      <point x="73" y="199"/>
      <point x="125" y="139"/>
      <point x="218" y="139" type="curve" smooth="yes"/>
      <point x="322" y="139"/>
      <point x="379" y="201"/>
      <point x="407" y="312" type="curve" smooth="yes"/>
      <point x="414" y="341"/>
      <point x="419" y="363"/>
      <point x="428" y="385" type="curve"/>
      <point x="407" y="356" type="line"/>
      <point x="483" y="375"/>
      <point x="522" y="391"/>
      <point x="522" y="441" type="curve" smooth="yes"/>
      <point x="522" y="451"/>
      <point x="518" y="458"/>
      <point x="515" y="463" type="curve"/>
      <point x="505" y="470"/>
      <point x="494" y="472"/>
      <point x="480" y="472" type="curve" smooth="yes"/>
      <point x="437" y="472"/>
      <point x="401" y="442"/>
      <point x="382" y="344" type="curve"/>
      <point x="392" y="344" type="line"/>
      <point x="390" y="405"/>
      <point x="340" y="455"/>
      <point x="262" y="455" type="curve" smooth="yes"/>
      <point x="158" y="455"/>
      <point x="73" y="369"/>
    </contour>
  </outline>
</glyph>
<glyph name="j" format="2">
  <advance width="252"/>
  <unicode hex="006A"/>
  <anchor x="234" y="678" name="aboveLC"/>
  <anchor x="2" y="-226" name="belowLC"/>
  <outline>
    <contour>
      <point x="225" y="555" type="curve" smooth="yes"/>
      <point x="261" y="555"/>
      <point x="294" y="587"/>
      <point x="294" y="626" type="curve" smooth="yes"/>
      <point x="294" y="663"/>
      <point x="269" y="687"/>
      <point x="233" y="687" type="curve" smooth="yes"/>
      <point x="197" y="687"/>
      <point x="163" y="656"/>
      <point x="163" y="617" type="curve" smooth="yes"/>
      <point x="163" y="578"/>
      <point x="192" y="555"/>
    </contour>
    <contour>
      <point x="-54" y="-220" type="line"/>
      <point x="1" y="-217"/>
      <point x="47" y="-193"/>
      <point x="81" y="-157" type="curve" smooth="yes"/>
      <point x="127" y="-112"/>
      <point x="157" y="-47"/>
      <point x="175" y="45" type="curve" smooth="yes"/>
      <point x="253" y="443" type="line"/>
      <point x="240" y="455" type="line"/>
      <point x="62" y="405" type="line"/>
      <point x="57" y="373" type="line"/>
      <point x="172" y="359" type="line"/>
      <point x="135" y="381" type="line"/>
      <point x="71" y="46" type="line" smooth="yes"/>
      <point x="52" y="-57"/>
      <point x="34" y="-107"/>
      <point x="10" y="-141" type="curve" smooth="yes"/>
      <point x="-9" y="-167"/>
      <point x="-31" y="-180"/>
      <point x="-60" y="-193" type="curve"/>
    </contour>
  </outline>
</glyph>
<glyph name="l" format="2">
  <advance width="273"/>
  <unicode hex="006C"/>
  <anchor x="229" y="667" name="aboveLC"/>
  <anchor x="121" y="-20" name="belowLC"/>
  <outline>
    <contour>
      <point x="123" y="-12" type="curve" smooth="yes"/>
      <point x="196" y="-12"/>
      <point x="250" y="46"/>
      <point x="287" y="104" type="curve"/>
      <point x="262" y="123" type="line"/>
      <point x="230" y="83"/>
      <point x="205" y="62"/>
      <point x="188" y="62" type="curve" smooth="yes"/>
      <point x="178" y="62"/>
      <point x="170" y="69"/>
      <point x="170" y="82" type="curve" smooth="yes"/>
      <point x="170" y="92"/>
      <point x="172" y="107"/>
      <point x="177" y="127" type="curve" smooth="yes"/>
      <point x="287" y="658" type="line"/>
      <point x="276" y="668" type="line"/>
      <point x="94" y="619" type="line"/>
      <point x="90" y="586" type="line"/>
      <point x="202" y="572" type="line"/>
      <point x="164" y="603" type="line"/>
      <point x="154" y="538"/>
      <point x="141" y="472"/>
      <point x="127" y="408" type="curve" smooth="yes"/>
      <point x="73" y="138" type="line" smooth="yes"/>
      <point x="63" y="92"/>
      <point x="58" y="66"/>
      <point x="58" y="46" type="curve" smooth="yes"/>
      <point x="58" y="7"/>
      <point x="84" y="-12"/>
    </contour>
  </outline>
</glyph>
<glyph name="m" format="2">
  <advance width="778"/>
  <unicode hex="006D"/>
  <anchor x="445" y="471" name="aboveLC"/>
  <anchor x="367" y="-20" name="belowLC"/>
  <outline>
    <contour>
      <point x="618" y="-12" type="curve" smooth="yes"/>
      <point x="691" y="-12"/>
      <point x="750" y="45"/>
      <point x="788" y="104" type="curve"/>
      <point x="762" y="123" type="line"/>
      <point x="730" y="82"/>
      <point x="706" y="62"/>
      <point x="687" y="62" type="curve" smooth="yes"/>
      <point x="678" y="62"/>
      <point x="670" y="69"/>
      <point x="670" y="81" type="curve" smooth="yes"/>
      <point x="670" y="91"/>
      <point x="675" y="105"/>
      <point x="680" y="126" type="curve" smooth="yes"/>
      <point x="723" y="299" type="line" smooth="yes"/>
      <point x="730" y="328"/>
      <point x="736" y="356"/>
      <point x="736" y="382" type="curve" smooth="yes"/>
      <point x="736" y="431"/>
      <point x="709" y="455"/>
      <point x="670" y="455" type="curve" smooth="yes"/>
      <point x="608" y="455"/>
      <point x="533" y="405"/>
      <point x="467" y="335" type="curve"/>
      <point x="465" y="296" type="line"/>
      <point x="521" y="347"/>
      <point x="564" y="372"/>
      <point x="594" y="372" type="curve" smooth="yes"/>
      <point x="611" y="372"/>
      <point x="621" y="363"/>
      <point x="621" y="339" type="curve" smooth="yes"/>
      <point x="621" y="322"/>
      <point x="616" y="295"/>
      <point x="609" y="265" type="curve" smooth="yes"/>
      <point x="572" y="119" type="line" smooth="yes"/>
      <point x="564" y="88"/>
      <point x="557" y="63"/>
      <point x="557" y="38" type="curve" smooth="yes"/>
      <point x="557" y="6"/>
      <point x="579" y="-12"/>
    </contour>
    <contour>
      <point x="165" y="0" type="line"/>
      <point x="177" y="66"/>
      <point x="189" y="130"/>
      <point x="203" y="195" type="curve" smooth="yes"/>
      <point x="231" y="328" type="line"/>
      <point x="254" y="443" type="line"/>
      <point x="239" y="455" type="line"/>
      <point x="62" y="405" type="line"/>
      <point x="57" y="373" type="line"/>
      <point x="172" y="359" type="line"/>
      <point x="135" y="380" type="line"/>
      <point x="55" y="1" type="line"/>
      <point x="67" y="-7" type="line"/>
    </contour>
    <contour>
      <point x="416" y="0" type="line"/>
      <point x="428" y="66"/>
      <point x="441" y="130"/>
      <point x="455" y="195" type="curve" smooth="yes"/>
      <point x="481" y="317" type="line" smooth="yes"/>
      <point x="485" y="340"/>
      <point x="490" y="362"/>
      <point x="490" y="382" type="curve" smooth="yes"/>
      <point x="490" y="431"/>
      <point x="463" y="455"/>
      <point x="424" y="455" type="curve" smooth="yes"/>
      <point x="360" y="455"/>
      <point x="283" y="405"/>
      <point x="216" y="335" type="curve"/>
      <point x="215" y="297" type="line"/>
      <point x="271" y="348"/>
      <point x="317" y="372"/>
      <point x="349" y="372" type="curve" smooth="yes"/>
      <point x="365" y="372"/>
      <point x="376" y="363"/>
      <point x="376" y="341" type="curve" smooth="yes"/>
      <point x="376" y="326"/>
      <point x="370" y="306"/>
      <point x="367" y="286" type="curve" smooth="yes"/>
      <point x="307" y="1" type="line"/>
      <point x="319" y="-7" type="line"/>
    </contour>
  </outline>
</glyph>
<glyph name="q" format="2">
  <advance width="486"/>
  <unicode hex="0071"/>
  <anchor x="355" y="471" name="aboveLC"/>
  <anchor x="290" y="-226" name="belowLC"/>
  <outline>
    <contour>
      <point x="134" y="-12" type="curve" smooth="yes"/>
      <point x="198" y="-12"/>
      <point x="289" y="47"/>
      <point x="345" y="131" type="curve"/>
      <point x="338" y="157" type="line"/>
      <point x="287" y="96"/>
      <point x="241" y="69"/>
      <point x="206" y="69" type="curve" smooth="yes"/>
      <point x="171" y="69"/>
      <point x="152" y="97"/>
      <point x="152" y="151" type="curve" smooth="yes"/>
      <point x="152" y="219"/>
      <point x="180" y="302"/>
      <point x="223" y="346" type="curve" smooth="yes"/>
      <point x="247" y="370"/>
      <point x="278" y="389"/>
      <point x="310" y="389" type="curve" smooth="yes"/>
      <point x="334" y="389"/>
      <point x="358" y="380"/>
      <point x="384" y="359" type="curve"/>
      <point x="437" y="408" type="line"/>
      <point x="408" y="440"/>
      <point x="381" y="455"/>
      <point x="345" y="455" type="curve" smooth="yes"/>
      <point x="210" y="455"/>
      <point x="43" y="270"/>
      <point x="43" y="112" type="curve" smooth="yes"/>
      <point x="43" y="20"/>
      <point x="85" y="-12"/>
    </contour>
    <contour>
      <point x="172" y="-213" type="line"/>
      <point x="421" y="-213" type="line"/>
      <point x="428" y="-179" type="line"/>
      <point x="318" y="-161" type="line"/>
      <point x="287" y="-161" type="line"/>
      <point x="180" y="-179" type="line"/>
    </contour>
    <contour>
      <point x="484" y="448" type="line"/>
      <point x="469" y="460" type="line"/>
      <point x="370" y="409" type="line"/>
      <point x="308" y="111" type="line"/>
      <point x="306" y="93" type="line"/>
      <point x="241" y="-213" type="line"/>
      <point x="351" y="-213" type="line"/>
      <point x="361" y="-150"/>
      <point x="372" y="-88"/>
      <point x="387" y="-22" type="curve" smooth="yes"/>
    </contour>
  </outline>
</glyph>
<glyph name="s" format="2">
  <advance width="366"/>
  <unicode hex="0073"/>
  <anchor x="256" y="471" name="aboveLC"/>
  <anchor x="150" y="0" name="baseLC"/>
  <anchor x="158" y="-20" name="belowLC"/>
  <outline>
    <contour>
      <point x="149" y="4" type="line"/>
      <point x="134" y="69" type="line" smooth="yes"/>
      <point x="126" y="106"/>
      <point x="106" y="121"/>
      <point x="76" y="121" type="curve" smooth="yes"/>
      <point x="52" y="121"/>
      <point x="35" y="105"/>
      <point x="30" y="81" type="curve"/>
      <point x="39" y="22"/>
      <point x="83" y="-12"/>
      <point x="159" y="-12" type="curve" smooth="yes"/>
      <point x="275" y="-12"/>
      <point x="339" y="47"/>
      <point x="339" y="123" type="curve" smooth="yes"/>
      <point x="339" y="176"/>
      <point x="317" y="207"/>
      <point x="261" y="250" type="curve" smooth="yes"/>
      <point x="211" y="287"/>
      <point x="190" y="310"/>
      <point x="190" y="348" type="curve" smooth="yes"/>
      <point x="190" y="384"/>
      <point x="210" y="417"/>
      <point x="264" y="417" type="curve" smooth="yes"/>
      <point x="279" y="417"/>
      <point x="291" y="416"/>
      <point x="302" y="414" type="curve"/>
      <point x="256" y="437" type="line"/>
      <point x="276" y="380" type="line" smooth="yes"/>
      <point x="288" y="345"/>
      <point x="310" y="330"/>
      <point x="334" y="330" type="curve" smooth="yes"/>
      <point x="359" y="330"/>
      <point x="375" y="344"/>
      <point x="379" y="367" type="curve"/>
      <point x="367" y="424"/>
      <point x="326" y="455"/>
      <point x="253" y="455" type="curve" smooth="yes"/>
      <point x="150" y="455"/>
      <point x="90" y="391"/>
      <point x="90" y="314" type="curve" smooth="yes"/>
      <point x="90" y="255"/>
      <point x="124" y="220"/>
      <point x="172" y="182" type="curve" smooth="yes"/>
      <point x="220" y="144"/>
      <point x="235" y="120"/>
      <point x="235" y="92" type="curve" smooth="yes"/>
      <point x="235" y="51"/>
      <point x="205" y="23"/>
      <point x="152" y="23" type="curve" smooth="yes"/>
      <point x="134" y="23"/>
      <point x="120" y="24"/>
      <point x="100" y="28" type="curve"/>
    </contour>
  </outline>
</glyph>
<glyph name="x" format="2">
  <advance width="511"/>
  <unicode hex="0078"/>
  <anchor x="334" y="471" name="aboveLC"/>
  <anchor x="218" y="-20" name="belowLC"/>
  <outline>
    <contour>
      <point x="3" y="58" type="curve"/>
      <point x="8" y="9"/>
      <point x="46" y="-12"/>
      <point x="84" y="-12" type="curve" smooth="yes"/>
      <point x="115" y="-12"/>
      <point x="137" y="0"/>
      <point x="158" y="24" type="curve" smooth="yes"/>
      <point x="198" y="73"/>
      <point x="236" y="134"/>
      <point x="285" y="217" type="curve"/>
      <point x="274" y="247" type="line"/>
      <point x="225" y="179"/>
      <point x="180" y="117"/>
      <point x="128" y="57" type="curve" smooth="yes"/>
      <point x="120" y="46"/>
      <point x="110" y="38"/>
      <point x="100" y="29" type="curve"/>
      <point x="138" y="23" type="line"/>
      <point x="120" y="53" type="line" smooth="yes"/>
      <point x="100" y="92"/>
      <point x="84" y="103"/>
      <point x="58" y="103" type="curve" smooth="yes"/>
      <point x="34" y="103"/>
      <point x="11" y="89"/>
    </contour>
    <contour>
      <point x="277" y="57" type="line" smooth="yes"/>
      <point x="296" y="1"/>
      <point x="322" y="-14"/>
      <point x="358" y="-14" type="curve" smooth="yes"/>
      <point x="415" y="-14"/>
      <point x="470" y="36"/>
      <point x="510" y="104" type="curve"/>
      <point x="484" y="123" type="line"/>
      <point x="455" y="85"/>
      <point x="428" y="62"/>
      <point x="408" y="62" type="curve" smooth="yes"/>
      <point x="389" y="62"/>
      <point x="379" y="71"/>
      <point x="367" y="110" type="curve" smooth="yes"/>
      <point x="282" y="371" type="line" smooth="yes"/>
      <point x="264" y="428"/>
      <point x="245" y="455"/>
      <point x="200" y="455" type="curve" smooth="yes"/>
      <point x="156" y="455"/>
      <point x="113" y="420"/>
      <point x="69" y="348" type="curve"/>
      <point x="91" y="327" type="line"/>
      <point x="115" y="362"/>
      <point x="137" y="370"/>
      <point x="151" y="370" type="curve" smooth="yes"/>
      <point x="171" y="370"/>
      <point x="179" y="360"/>
      <point x="190" y="326" type="curve" smooth="yes"/>
    </contour>
    <contour>
      <point x="288" y="197" type="line"/>
      <point x="333" y="260"/>
      <point x="379" y="322"/>
      <point x="429" y="380" type="curve" smooth="yes"/>
      <point x="439" y="392"/>
      <point x="450" y="402"/>
      <point x="462" y="411" type="curve"/>
      <point x="415" y="413" type="line"/>
      <point x="437" y="379" type="line" smooth="yes"/>
      <point x="455" y="352"/>
      <point x="473" y="341"/>
      <point x="497" y="341" type="curve" smooth="yes"/>
      <point x="526" y="341"/>
      <point x="548" y="365"/>
      <point x="550" y="401" type="curve"/>
      <point x="540" y="437"/>
      <point x="509" y="455"/>
      <point x="481" y="455" type="curve" smooth="yes"/>
      <point x="448" y="455"/>
      <point x="425" y="443"/>
      <point x="397" y="409" type="curve" smooth="yes"/>
      <point x="370" y="374"/>
      <point x="324" y="310"/>
      <point x="276" y="228" type="curve"/>
    </contour>
  </outline>
</glyph>
<glyph name="asciitilde" format="2">
  <advance width="495"/>
  <unicode hex="007E"/>
  <outline>
    <contour>
      <point x="286" y="345" type="curve" smooth="yes"/>
      <point x="248" y="378"/>
      <point x="217" y="394"/>
      <point x="183" y="394" type="curve" smooth="yes"/>
      <point x="117" y="394"/>
      <point x="74" y="353"/>
      <point x="71" y="253" type="curve"/>
      <point x="128" y="246" type="line"/>
      <point x="134" y="308"/>
      <point x="154" y="327"/>
      <point x="178" y="327" type="curve" smooth="yes"/>
      <point x="197" y="327"/>
      <point x="213" y="318"/>
      <point x="248" y="288" type="curve" smooth="yes"/>
      <point x="286" y="256"/>
      <point x="316" y="240"/>
      <point x="351" y="240" type="curve" smooth="yes"/>
      <point x="415" y="240"/>
      <point x="460" y="281"/>
      <point x="462" y="381" type="curve"/>
      <point x="405" y="388" type="line"/>
      <point x="400" y="326"/>
      <point x="379" y="307"/>
      <point x="356" y="307" type="curve" smooth="yes"/>
      <point x="336" y="307"/>
      <point x="321" y="316"/>
    </contour>
  </outline>
</glyph>
<glyph name="yen" format="2">
  <advance width="490"/>
  <unicode hex="00A5"/>
  <outline>
    <contour>
      <point x="49" y="129" type="line"/>
      <point x="413" y="129" type="line"/>
      <point x="424" y="180" type="line"/>
      <point x="59" y="180" type="line"/>
    </contour>
    <contour>
      <point x="73" y="246" type="line"/>
      <point x="437" y="246" type="line"/>
      <point x="448" y="297" type="line"/>
      <point x="83" y="297" type="line"/>
    </contour>
    <contour>
      <point x="196" y="57" type="line"/>
      <point x="73" y="44" type="line"/>
      <point x="65" y="0" type="line"/>
      <point x="343" y="0" type="line"/>
      <point x="350" y="44" type="line"/>
      <point x="233" y="57" type="line"/>
    </contour>
    <contour>
      <point x="170" y="529" type="line"/>
      <point x="187" y="529" type="line"/>
      <point x="300" y="542" type="line"/>
      <point x="310" y="586" type="line"/>
      <point x="74" y="586" type="line"/>
      <point x="65" y="542" type="line"/>
    </contour>
    <contour>
      <point x="460" y="529" type="line"/>
      <point x="478" y="529" type="line"/>
      <point x="550" y="542" type="line"/>
      <point x="559" y="586" type="line"/>
      <point x="389" y="586" type="line"/>
      <point x="380" y="542" type="line"/>
    </contour>
    <contour>
      <point x="151" y="0" type="line"/>
      <point x="261" y="0" type="line"/>
      <point x="276" y="77"/>
      <point x="282" y="119"/>
      <point x="316" y="281" type="curve"/>
      <point x="208" y="281" type="line"/>
    </contour>
    <contour>
      <point x="288" y="222" type="line"/>
      <point x="528" y="586" type="line"/>
      <point x="471" y="586" type="line"/>
      <point x="283" y="290" type="line"/>
      <point x="298" y="290" type="line"/>
      <point x="218" y="586" type="line"/>
      <point x="104" y="586" type="line"/>
      <point x="217" y="222" type="line"/>
    </contour>
  </outline>
</glyph>
<glyph name="dieresis" format="2">
  <advance width="368"/>
  <unicode hex="00A8"/>
  <anchor x="242" y="471" name="_aboveLC"/>
  <anchor x="283" y="664" name="aboveLC"/>
  <outline>
    <contour>
      <point x="168" y="556" type="curve" smooth="yes"/>
      <point x="201" y="556"/>
      <point x="231" y="582"/>
      <point x="231" y="623" type="curve" smooth="yes"/>
      <point x="231" y="654"/>
      <point x="208" y="674"/>
      <point x="178" y="674" type="curve" smooth="yes"/>
      <point x="147" y="674"/>
      <point x="114" y="649"/>
      <point x="114" y="609" type="curve" smooth="yes"/>
      <point x="114" y="575"/>
      <point x="138" y="556"/>
    </contour>
    <contour>
      <point x="362" y="556" type="curve" smooth="yes"/>
      <point x="395" y="556"/>
      <point x="426" y="582"/>
      <point x="426" y="623" type="curve" smooth="yes"/>
      <point x="426" y="654"/>
      <point x="403" y="674"/>
      <point x="373" y="674" type="curve" smooth="yes"/>
      <point x="342" y="674"/>
      <point x="309" y="649"/>
      <point x="309" y="609" type="curve" smooth="yes"/>
      <point x="309" y="575"/>
      <point x="334" y="556"/>
    </contour>
  </outline>
</glyph>
<glyph name="guillemotleft" format="2">
  <advance width="541"/>
  <unicode hex="00AB"/>
  <outline>
    <contour>
      <point x="244" y="34" type="line"/>
      <point x="277" y="64" type="line"/>
      <point x="132" y="260" type="line"/>
      <point x="122" y="204" type="line"/>
      <point x="325" y="398" type="line"/>
      <point x="300" y="429" type="line"/>
      <point x="74" y="260" type="line"/>
      <point x="64" y="204" type="line"/>
    </contour>
    <contour>
      <point x="447" y="34" type="line"/>
      <point x="480" y="64" type="line"/>
      <point x="334" y="260" type="line"/>
      <point x="323" y="204" type="line"/>
      <point x="528" y="398" type="line"/>
      <point x="503" y="429" type="line"/>
      <point x="276" y="260" type="line"/>
      <point x="266" y="204" type="line"/>
    </contour>
  </outline>
</glyph>
<glyph name="registered" format="2">
  <advance width="430"/>
  <unicode hex="00AE"/>
  <outline>
    <contour>
      <point x="264" y="287" type="curve" smooth="yes"/>
      <point x="368" y="287"/>
      <point x="465" y="366"/>
      <point x="465" y="491" type="curve" smooth="yes"/>
      <point x="465" y="593"/>
      <point x="391" y="655"/>
      <point x="298" y="655" type="curve" smooth="yes"/>
      <point x="195" y="655"/>
      <point x="97" y="576"/>
      <point x="97" y="452" type="curve" smooth="yes"/>
      <point x="97" y="348"/>
      <point x="170" y="287"/>
    </contour>
    <contour>
      <point x="267" y="322" type="curve" smooth="yes"/>
      <point x="195" y="322"/>
      <point x="138" y="371"/>
      <point x="138" y="454" type="curve" smooth="yes"/>
      <point x="138" y="556"/>
      <point x="214" y="621"/>
      <point x="296" y="621" type="curve" smooth="yes"/>
      <point x="368" y="621"/>
      <point x="424" y="571"/>
      <point x="424" y="488" type="curve" smooth="yes"/>
      <point x="424" y="386"/>
      <point x="349" y="322"/>
    </contour>
    <contour>
      <point x="369" y="385" type="curve"/>
      <point x="372" y="402" type="line"/>
      <point x="330" y="406" type="line"/>
      <point x="355" y="391" type="line"/>
      <point x="340" y="436" type="line" smooth="yes"/>
      <point x="332" y="462"/>
      <point x="321" y="476"/>
      <point x="290" y="476" type="curve"/>
      <point x="286" y="472" type="line"/>
      <point x="345" y="473"/>
      <point x="365" y="495"/>
      <point x="365" y="523" type="curve" smooth="yes"/>
      <point x="365" y="552"/>
      <point x="343" y="567"/>
      <point x="306" y="567" type="curve" smooth="yes"/>
      <point x="267" y="567" type="line"/>
      <point x="264" y="550" type="line"/>
      <point x="297" y="550" type="line" smooth="yes"/>
      <point x="312" y="550"/>
      <point x="322" y="541"/>
      <point x="322" y="521" type="curve" smooth="yes"/>
      <point x="322" y="499"/>
      <point x="310" y="483"/>
      <point x="281" y="483" type="curve" smooth="yes"/>
      <point x="251" y="483" type="line"/>
      <point x="248" y="466" type="line"/>
      <point x="272" y="466" type="line" smooth="yes"/>
      <point x="285" y="466"/>
      <point x="287" y="460"/>
      <point x="293" y="441" type="curve" smooth="yes"/>
      <point x="303" y="406" type="line" smooth="yes"/>
      <point x="308" y="387"/>
      <point x="317" y="381"/>
      <point x="337" y="381" type="curve" smooth="yes"/>
      <point x="349" y="381"/>
      <point x="358" y="382"/>
    </contour>
    <contour>
      <point x="204" y="385" type="line"/>
      <point x="251" y="385" type="line"/>
      <point x="287" y="567" type="line"/>
      <point x="240" y="567" type="line"/>
    </contour>
    <contour>
      <point x="215" y="551" type="line"/>
      <point x="254" y="546" type="line"/>
      <point x="259" y="546" type="line"/>
      <point x="264" y="567" type="line"/>
      <point x="218" y="567" type="line"/>
    </contour>
    <contour>
      <point x="183" y="385" type="line"/>
      <point x="272" y="385" type="line"/>
      <point x="275" y="402" type="line"/>
      <point x="235" y="405" type="line"/>
      <point x="227" y="405" type="line"/>
      <point x="185" y="402" type="line"/>
    </contour>
  </outline>
</glyph>
<glyph name="two.sups" format="2">
  <advance width="332"/>
  <unicode hex="00B2"/>
  <outline>
    <contour>
      <point x="92" y="383" type="line"/>
      <point x="339" y="383" type="line"/>
      <point x="354" y="454" type="line"/>
      <point x="152" y="454" type="line"/>
      <point x="157" y="447" type="line"/>
      <point x="327" y="565"/>
      <point x="378" y="605"/>
      <point x="378" y="665" type="curve" smooth="yes"/>
      <point x="378" y="715"/>
      <point x="345" y="753"/>
      <point x="276" y="753" type="curve" smooth="yes"/>
      <point x="208" y="753"/>
      <point x="155" y="727"/>
      <point x="135" y="649" type="curve"/>
      <point x="138" y="625"/>
      <point x="150" y="613"/>
      <point x="171" y="613" type="curve" smooth="yes"/>
      <point x="195" y="613"/>
      <point x="211" y="628"/>
      <point x="213" y="668" type="curve" smooth="yes"/>
      <point x="216" y="732" type="line"/>
      <point x="182" y="697" type="line"/>
      <point x="201" y="711"/>
      <point x="225" y="717"/>
      <point x="246" y="717" type="curve" smooth="yes"/>
      <point x="276" y="717"/>
      <point x="296" y="700"/>
      <point x="296" y="665" type="curve" smooth="yes"/>
      <point x="296" y="618"/>
      <point x="263" y="573"/>
      <point x="101" y="436" type="curve"/>
    </contour>
  </outline>
</glyph>
<glyph name="one.sups" format="2">
  <advance width="332"/>
  <unicode hex="00B9"/>
  <outline>
    <contour>
      <point x="335" y="383" type="line"/>
      <point x="342" y="412" type="line"/>
      <point x="251" y="423" type="line"/>
      <point x="207" y="423" type="line"/>
      <point x="116" y="412" type="line"/>
      <point x="110" y="383" type="line"/>
    </contour>
    <contour>
      <point x="263" y="383" type="line"/>
      <point x="322" y="666" type="line"/>
      <point x="342" y="747" type="line"/>
      <point x="334" y="753" type="line"/>
      <point x="181" y="720" type="line"/>
      <point x="175" y="693" type="line"/>
      <point x="256" y="696" type="line"/>
      <point x="242" y="713" type="line"/>
      <point x="176" y="383" type="line"/>
    </contour>
  </outline>
</glyph>
<glyph name="Aacute" format="2">
  <advance width="629"/>
  <unicode hex="00C1"/>
  <anchor x="464" y="802" name="aboveUC"/>
  <anchor x="250" y="-20" name="belowLC"/>
  <anchor x="486" y="0" name="ogonek"/>
  <outline>
    <contour>
      <point x="-26" y="0" type="line"/>
      <point x="180" y="0" type="line"/>
      <point x="189" y="45" type="line"/>
      <point x="102" y="58" type="line"/>
      <point x="79" y="58" type="line"/>
      <point x="-17" y="45" type="line"/>
    </contour>
    <contour>
      <point x="30" y="0" type="line"/>
      <point x="83" y="0" type="line"/>
      <point x="363" y="542" type="line"/>
      <point x="337" y="520" type="line"/>
      <point x="411" y="0" type="line"/>
      <point x="529" y="0" type="line"/>
      <point x="434" y="609" type="line"/>
      <point x="356" y="609" type="line"/>
    </contour>
    <contour>
      <point x="170" y="197" type="line"/>
      <point x="438" y="197" type="line"/>
      <point x="439" y="246" type="line"/>
      <point x="188" y="246" type="line"/>
    </contour>
    <contour>
      <point x="317" y="0" type="line"/>
      <point x="587" y="0" type="line"/>
      <point x="596" y="45" type="line"/>
      <point x="477" y="58" type="line"/>
      <point x="454" y="58" type="line"/>
      <point x="326" y="45" type="line"/>
    </contour>
    <contour>
      <point x="354" y="673" type="curve"/>
      <point x="370" y="646" type="line"/>
      <point x="419" y="666"/>
      <point x="468" y="684"/>
      <point x="517" y="704" type="curve" smooth="yes"/>
      <point x="563" y="723"/>
      <point x="571" y="743"/>
      <point x="571" y="761" type="curve" smooth="yes"/>
      <point x="571" y="783"/>
      <point x="554" y="802"/>
      <point x="529" y="802" type="curve" smooth="yes"/>
      <point x="505" y="802"/>
      <point x="491" y="794"/>
      <point x="460" y="768" type="curve" smooth="yes"/>
      <point x="423" y="737"/>
      <point x="389" y="705"/>
    </contour>
  </outline>
</glyph>
<glyph name="Aring" format="2">
  <advance width="629"/>
  <unicode hex="00C5"/>
  <anchor x="429" y="834" name="aboveUC"/>
  <anchor x="250" y="-20" name="belowLC"/>
  <anchor x="486" y="0" name="ogonek"/>
  <outline>
    <contour>
      <point x="-26" y="0" type="line"/>
      <point x="180" y="0" type="line"/>
      <point x="189" y="45" type="line"/>
      <point x="102" y="58" type="line"/>
      <point x="79" y="58" type="line"/>
      <point x="-17" y="45" type="line"/>
    </contour>
    <contour>
      <point x="30" y="0" type="line"/>
      <point x="83" y="0" type="line"/>
      <point x="363" y="542" type="line"/>
      <point x="337" y="520" type="line"/>
      <point x="411" y="0" type="line"/>
      <point x="529" y="0" type="line"/>
      <point x="434" y="609" type="line"/>
      <point x="356" y="609" type="line"/>
    </contour>
    <contour>
      <point x="170" y="197" type="line"/>
      <point x="438" y="197" type="line"/>
      <point x="439" y="246" type="line"/>
      <point x="188" y="246" type="line"/>
    </contour>
    <contour>
      <point x="317" y="0" type="line"/>
      <point x="587" y="0" type="line"/>
      <point x="596" y="45" type="line"/>
      <point x="477" y="58" type="line"/>
      <point x="454" y="58" type="line"/>
      <point x="326" y="45" type="line"/>
    </contour>
    <contour>
      <point x="401" y="646" type="curve" smooth="yes"/>
      <point x="452" y="646"/>
      <point x="500" y="682"/>
      <point x="500" y="746" type="curve" smooth="yes"/>
      <point x="500" y="794"/>
      <point x="464" y="825"/>
      <point x="414" y="825" type="curve" smooth="yes"/>
      <point x="364" y="825"/>
      <point x="314" y="788"/>
      <point x="314" y="725" type="curve" smooth="yes"/>
      <point x="314" y="675"/>
      <point x="355" y="646"/>
    </contour>
    <contour>
      <point x="402" y="684" type="curve" smooth="yes"/>
      <point x="375" y="684"/>
      <point x="358" y="704"/>
      <point x="358" y="729" type="curve" smooth="yes"/>
      <point x="358" y="762"/>
      <point x="382" y="787"/>
      <point x="413" y="787" type="curve" smooth="yes"/>
      <point x="441" y="787"/>
      <point x="456" y="767"/>
      <point x="456" y="743" type="curve" smooth="yes"/>
      <point x="456" y="709"/>
      <point x="434" y="684"/>
    </contour>
  </outline>
</glyph>
<glyph name="Ograve" format="2">
  <advance width="611"/>
  <unicode hex="00D2"/>
  <anchor x="434" y="808" name="aboveUC"/>
  <anchor x="277" y="-19" name="belowLC"/>
  <anchor x="528" y="619" name="hornLC"/>
  <anchor x="369" y="0" name="ogonek"/>
  <outline>
    <contour>
      <point x="276" y="-15" type="curve" smooth="yes"/>
      <point x="484" y="-15"/>
      <point x="613" y="163"/>
      <point x="613" y="371" type="curve" smooth="yes"/>
      <point x="613" y="528"/>
      <point x="522" y="624"/>
      <point x="384" y="624" type="curve" smooth="yes"/>
      <point x="178" y="624"/>
      <point x="49" y="442"/>
      <point x="49" y="237" type="curve" smooth="yes"/>
      <point x="49" y="72"/>
      <point x="143" y="-15"/>
    </contour>
    <contour>
      <point x="288" y="34" type="curve" smooth="yes"/>
      <point x="205" y="34"/>
      <point x="168" y="103"/>
      <point x="168" y="219" type="curve" smooth="yes"/>
      <point x="168" y="416"/>
      <point x="257" y="574"/>
      <point x="375" y="574" type="curve" smooth="yes"/>
      <point x="460" y="574"/>
      <point x="494" y="507"/>
      <point x="494" y="391" type="curve" smooth="yes"/>
      <point x="494" y="195"/>
      <point x="404" y="34"/>
    </contour>
    <contour>
      <point x="443" y="678" type="line"/>
      <point x="411" y="711"/>
      <point x="379" y="743"/>
      <point x="347" y="772" type="curve" smooth="yes"/>
      <point x="319" y="799"/>
      <point x="302" y="808"/>
      <point x="283" y="808" type="curve" smooth="yes"/>
      <point x="257" y="808"/>
      <point x="239" y="789"/>
      <point x="239" y="767" type="curve" smooth="yes"/>
      <point x="239" y="750"/>
      <point x="249" y="729"/>
      <point x="289" y="710" type="curve" smooth="yes"/>
      <point x="333" y="689"/>
      <point x="379" y="669"/>
      <point x="423" y="651" type="curve"/>
    </contour>
  </outline>
</glyph>
<glyph name="Oacute" format="2">
  <advance width="611"/>
  <unicode hex="00D3"/>
  <anchor x="463" y="806" name="aboveUC"/>
  <anchor x="277" y="-19" name="belowLC"/>
  <anchor x="528" y="619" name="hornLC"/>
  <anchor x="369" y="0" name="ogonek"/>
  <outline>
    <contour>
      <point x="276" y="-15" type="curve" smooth="yes"/>
      <point x="484" y="-15"/>
      <point x="613" y="163"/>
      <point x="613" y="371" type="curve" smooth="yes"/>
      <point x="613" y="528"/>
      <point x="522" y="624"/>
      <point x="384" y="624" type="curve" smooth="yes"/>
      <point x="178" y="624"/>
      <point x="49" y="442"/>
      <point x="49" y="237" type="curve" smooth="yes"/>
      <point x="49" y="72"/>
      <point x="143" y="-15"/>
    </contour>
    <contour>
      <point x="288" y="34" type="curve" smooth="yes"/>
      <point x="205" y="34"/>
      <point x="168" y="103"/>
      <point x="168" y="219" type="curve" smooth="yes"/>
      <point x="168" y="416"/>
      <point x="257" y="574"/>
      <point x="375" y="574" type="curve" smooth="yes"/>
      <point x="460" y="574"/>
      <point x="494" y="507"/>
      <point x="494" y="391" type="curve" smooth="yes"/>
      <point x="494" y="195"/>
      <point x="404" y="34"/>
    </contour>
    <contour>
      <point x="353" y="678" type="curve"/>
      <point x="369" y="651" type="line"/>
      <point x="418" y="669"/>
      <point x="467" y="689"/>
      <point x="517" y="708" type="curve" smooth="yes"/>
      <point x="562" y="727"/>
      <point x="570" y="747"/>
      <point x="570" y="766" type="curve" smooth="yes"/>
      <point x="570" y="788"/>
      <point x="553" y="806"/>
      <point x="528" y="806" type="curve" smooth="yes"/>
      <point x="503" y="806"/>
      <point x="489" y="798"/>
      <point x="458" y="772" type="curve" smooth="yes"/>
      <point x="423" y="741"/>
      <point x="388" y="710"/>
    </contour>
  </outline>
</glyph>
<glyph name="Ocircumflex" format="2">
  <advance width="611"/>
  <unicode hex="00D4"/>
  <anchor x="421" y="808" name="aboveUC"/>
  <anchor x="277" y="-19" name="belowLC"/>
  <anchor x="528" y="619" name="hornLC"/>
  <anchor x="369" y="0" name="ogonek"/>
  <outline>
    <contour>
      <point x="276" y="-15" type="curve" smooth="yes"/>
      <point x="484" y="-15"/>
      <point x="613" y="163"/>
      <point x="613" y="371" type="curve" smooth="yes"/>
      <point x="613" y="528"/>
      <point x="522" y="624"/>
      <point x="384" y="624" type="curve" smooth="yes"/>
      <point x="178" y="624"/>
      <point x="49" y="442"/>
      <point x="49" y="237" type="curve" smooth="yes"/>
      <point x="49" y="72"/>
      <point x="143" y="-15"/>
    </contour>
    <contour>
      <point x="288" y="34" type="curve" smooth="yes"/>
      <point x="205" y="34"/>
      <point x="168" y="103"/>
      <point x="168" y="219" type="curve" smooth="yes"/>
      <point x="168" y="416"/>
      <point x="257" y="574"/>
      <point x="375" y="574" type="curve" smooth="yes"/>
      <point x="460" y="574"/>
      <point x="494" y="507"/>
      <point x="494" y="391" type="curve" smooth="yes"/>
      <point x="494" y="195"/>
      <point x="404" y="34"/>
    </contour>
    <contour>
      <point x="438" y="799" type="line"/>
      <point x="391" y="799" type="line"/>
      <point x="245" y="669" type="line"/>
      <point x="262" y="644" type="line"/>
      <point x="448" y="752" type="line"/>
      <point x="368" y="752" type="line"/>
      <point x="521" y="644" type="line"/>
      <point x="545" y="668" type="line"/>
    </contour>
  </outline>
</glyph>
<glyph name="multiply" format="2">
  <advance width="495"/>
  <unicode hex="00D7"/>
  <outline>
    <contour>
      <point x="414" y="101" type="line"/>
      <point x="462" y="149" type="line"/>
      <point x="113" y="497" type="line"/>
      <point x="65" y="449" type="line"/>
    </contour>
    <contour>
      <point x="462" y="449" type="line"/>
      <point x="414" y="497" type="line"/>
      <point x="65" y="149" type="line"/>
      <point x="113" y="101" type="line"/>
    </contour>
  </outline>
</glyph>
<glyph name="Ucircumflex" format="2">
  <advance width="640"/>
  <unicode hex="00DB"/>
  <anchor x="474" y="808" name="aboveUC"/>
  <anchor x="299" y="-20" name="belowLC"/>
  <anchor x="626" y="625" name="hornLC"/>
  <anchor x="390" y="0" name="ogonek"/>
  <outline>
    <contour>
      <point x="97" y="166" type="curve" smooth="yes"/>
      <point x="97" y="45"/>
      <point x="172" y="-15"/>
      <point x="301" y="-15" type="curve" smooth="yes"/>
      <point x="436" y="-15"/>
      <point x="529" y="58"/>
      <point x="564" y="246" type="curve" smooth="yes"/>
      <point x="632" y="609" type="line"/>
      <point x="577" y="609" type="line"/>
      <point x="510" y="256" type="line" smooth="yes"/>
      <point x="482" y="106"/>
      <point x="431" y="57"/>
      <point x="333" y="57" type="curve" smooth="yes"/>
      <point x="264" y="57"/>
      <point x="218" y="99"/>
      <point x="218" y="172" type="curve" smooth="yes"/>
      <point x="218" y="206"/>
      <point x="223" y="230"/>
      <point x="229" y="259" type="curve" smooth="yes"/>
      <point x="294" y="609" type="line"/>
      <point x="169" y="609" type="line"/>
      <point x="154" y="516"/>
      <point x="137" y="421"/>
      <point x="120" y="329" type="curve" smooth="yes"/>
      <point x="106" y="253" type="line" smooth="yes"/>
      <point x="101" y="223"/>
      <point x="97" y="193"/>
    </contour>
    <contour>
      <point x="87" y="563" type="line"/>
      <point x="209" y="550" type="line"/>
      <point x="232" y="550" type="line"/>
      <point x="357" y="563" type="line"/>
      <point x="367" y="609" type="line"/>
      <point x="95" y="609" type="line"/>
    </contour>
    <contour>
      <point x="481" y="563" type="line"/>
      <point x="581" y="553" type="line"/>
      <point x="604" y="553" type="line"/>
      <point x="698" y="563" type="line"/>
      <point x="706" y="609" type="line"/>
      <point x="490" y="609" type="line"/>
    </contour>
    <contour>
      <point x="491" y="799" type="line"/>
      <point x="444" y="799" type="line"/>
      <point x="298" y="669" type="line"/>
      <point x="314" y="644" type="line"/>
      <point x="500" y="752" type="line"/>
      <point x="420" y="752" type="line"/>
      <point x="575" y="644" type="line"/>
      <point x="598" y="668" type="line"/>
    </contour>
  </outline>
</glyph>
<glyph name="Yacute" format="2">
  <advance width="521"/>
  <unicode hex="00DD"/>
  <anchor x="435" y="802" name="aboveUC"/>
  <anchor x="233" y="-20" name="belowLC"/>
  <outline>
    <contour>
      <point x="56" y="563" type="line"/>
      <point x="180" y="550" type="line"/>
      <point x="211" y="550" type="line"/>
      <point x="325" y="563" type="line"/>
      <point x="333" y="609" type="line"/>
      <point x="65" y="609" type="line"/>
    </contour>
    <contour>
      <point x="94" y="0" type="line"/>
      <point x="381" y="0" type="line"/>
      <point x="391" y="45" type="line"/>
      <point x="264" y="58" type="line"/>
      <point x="233" y="58" type="line"/>
      <point x="103" y="45" type="line"/>
    </contour>
    <contour>
      <point x="236" y="213" type="line"/>
      <point x="312" y="213" type="line"/>
      <point x="575" y="609" type="line"/>
      <point x="519" y="609" type="line"/>
      <point x="314" y="289" type="line"/>
      <point x="332" y="284" type="line"/>
      <point x="235" y="609" type="line"/>
      <point x="103" y="609" type="line"/>
    </contour>
    <contour>
      <point x="177" y="0" type="line"/>
      <point x="297" y="0" type="line"/>
      <point x="312" y="94"/>
      <point x="329" y="191"/>
      <point x="346" y="286" type="curve"/>
      <point x="231" y="286" type="line"/>
    </contour>
    <contour>
      <point x="415" y="563" type="line"/>
      <point x="503" y="550" type="line"/>
      <point x="522" y="550" type="line"/>
      <point x="609" y="563" type="line"/>
      <point x="619" y="609" type="line"/>
      <point x="425" y="609" type="line"/>
    </contour>
    <contour>
      <point x="324" y="673" type="curve"/>
      <point x="341" y="646" type="line"/>
      <point x="390" y="666"/>
      <point x="438" y="684"/>
      <point x="487" y="704" type="curve" smooth="yes"/>
      <point x="533" y="723"/>
      <point x="541" y="743"/>
      <point x="541" y="761" type="curve" smooth="yes"/>
      <point x="541" y="783"/>
      <point x="525" y="802"/>
      <point x="499" y="802" type="curve" smooth="yes"/>
      <point x="475" y="802"/>
      <point x="461" y="794"/>
      <point x="430" y="768" type="curve" smooth="yes"/>
      <point x="394" y="737"/>
      <point x="359" y="705"/>
    </contour>
  </outline>
</glyph>
<glyph name="Thorn" format="2">
  <advance width="536"/>
  <unicode hex="00DE"/>
  <outline>
    <contour>
      <point x="163" y="132" type="line"/>
      <point x="261" y="132" type="line" smooth="yes"/>
      <point x="448" y="132"/>
      <point x="543" y="218"/>
      <point x="543" y="327" type="curve" smooth="yes"/>
      <point x="543" y="428"/>
      <point x="476" y="492"/>
      <point x="320" y="492" type="curve" smooth="yes"/>
      <point x="233" y="492" type="line"/>
      <point x="223" y="443" type="line"/>
      <point x="310" y="443" type="line" smooth="yes"/>
      <point x="388" y="443"/>
      <point x="425" y="403"/>
      <point x="425" y="332" type="curve" smooth="yes"/>
      <point x="425" y="238"/>
      <point x="368" y="180"/>
      <point x="268" y="180" type="curve" smooth="yes"/>
      <point x="172" y="180" type="line"/>
    </contour>
    <contour>
      <point x="4" y="0" type="line"/>
      <point x="274" y="0" type="line"/>
      <point x="282" y="45" type="line"/>
      <point x="163" y="58" type="line"/>
      <point x="140" y="58" type="line"/>
      <point x="12" y="45" type="line"/>
    </contour>
    <contour>
      <point x="78" y="0" type="line"/>
      <point x="197" y="0" type="line"/>
      <point x="213" y="94"/>
      <point x="230" y="190"/>
      <point x="247" y="285" type="curve" smooth="yes"/>
      <point x="309" y="609" type="line"/>
      <point x="188" y="609" type="line"/>
      <point x="173" y="514"/>
      <point x="157" y="418"/>
      <point x="138" y="323" type="curve" smooth="yes"/>
    </contour>
    <contour>
      <point x="103" y="563" type="line"/>
      <point x="227" y="550" type="line"/>
      <point x="250" y="550" type="line"/>
      <point x="373" y="563" type="line"/>
      <point x="382" y="609" type="line"/>
      <point x="113" y="609" type="line"/>
    </contour>
  </outline>
</glyph>
<glyph name="aacute" format="2">
  <advance width="507"/>
  <unicode hex="00E1"/>
  <anchor x="379" y="712" name="aboveLC"/>
  <anchor x="232" y="-20" name="belowLC"/>
  <anchor x="401" y="0" name="ogonek"/>
  <outline>
    <contour>
      <point x="136" y="-12" type="curve" smooth="yes"/>
      <point x="198" y="-12"/>
      <point x="276" y="49"/>
      <point x="333" y="131" type="curve"/>
      <point x="327" y="157" type="line"/>
      <point x="276" y="97"/>
      <point x="237" y="69"/>
      <point x="205" y="69" type="curve" smooth="yes"/>
      <point x="172" y="69"/>
      <point x="152" y="94"/>
      <point x="152" y="151" type="curve" smooth="yes"/>
      <point x="152" y="222"/>
      <point x="184" y="308"/>
      <point x="227" y="350" type="curve" smooth="yes"/>
      <point x="253" y="376"/>
      <point x="281" y="389"/>
      <point x="305" y="389" type="curve" smooth="yes"/>
      <point x="333" y="389"/>
      <point x="359" y="375"/>
      <point x="381" y="358" type="curve"/>
      <point x="434" y="396" type="line"/>
      <point x="408" y="431"/>
      <point x="380" y="455"/>
      <point x="343" y="455" type="curve" smooth="yes"/>
      <point x="214" y="455"/>
      <point x="42" y="270"/>
      <point x="42" y="107" type="curve" smooth="yes"/>
      <point x="42" y="20"/>
      <point x="87" y="-12"/>
    </contour>
    <contour>
      <point x="360" y="-12" type="curve" smooth="yes"/>
      <point x="426" y="-12"/>
      <point x="486" y="49"/>
      <point x="521" y="105" type="curve"/>
      <point x="495" y="124" type="line"/>
      <point x="465" y="86"/>
      <point x="439" y="62"/>
      <point x="420" y="62" type="curve" smooth="yes"/>
      <point x="409" y="62"/>
      <point x="402" y="69"/>
      <point x="402" y="82" type="curve" smooth="yes"/>
      <point x="402" y="92"/>
      <point x="404" y="107"/>
      <point x="409" y="126" type="curve" smooth="yes"/>
      <point x="483" y="448" type="line"/>
      <point x="467" y="460" type="line"/>
      <point x="362" y="402" type="line"/>
      <point x="304" y="133" type="line" smooth="yes"/>
      <point x="298" y="104"/>
      <point x="295" y="83"/>
      <point x="295" y="58" type="curve" smooth="yes"/>
      <point x="295" y="10"/>
      <point x="322" y="-12"/>
    </contour>
    <contour>
      <point x="320" y="509" type="curve"/>
      <point x="346" y="493" type="line"/>
      <point x="380" y="529"/>
      <point x="415" y="564"/>
      <point x="448" y="600" type="curve" smooth="yes"/>
      <point x="472" y="624"/>
      <point x="484" y="644"/>
      <point x="484" y="667" type="curve" smooth="yes"/>
      <point x="484" y="695"/>
      <point x="461" y="712"/>
      <point x="437" y="712" type="curve" smooth="yes"/>
      <point x="412" y="712"/>
      <point x="391" y="698"/>
      <point x="375" y="655" type="curve" smooth="yes"/>
      <point x="356" y="607"/>
      <point x="338" y="558"/>
    </contour>
  </outline>
</glyph>
<glyph name="aring" format="2">
  <advance width="507"/>
  <unicode hex="00E5"/>
  <anchor x="393" y="718" name="aboveLC"/>
  <anchor x="232" y="-20" name="belowLC"/>
  <anchor x="401" y="0" name="ogonek"/>
  <outline>
    <contour>
      <point x="136" y="-12" type="curve" smooth="yes"/>
      <point x="198" y="-12"/>
      <point x="276" y="49"/>
      <point x="333" y="131" type="curve"/>
      <point x="327" y="157" type="line"/>
      <point x="276" y="97"/>
      <point x="237" y="69"/>
      <point x="205" y="69" type="curve" smooth="yes"/>
      <point x="172" y="69"/>
      <point x="152" y="94"/>
      <point x="152" y="151" type="curve" smooth="yes"/>
      <point x="152" y="222"/>
      <point x="184" y="308"/>
      <point x="227" y="350" type="curve" smooth="yes"/>
      <point x="253" y="376"/>
      <point x="281" y="389"/>
      <point x="305" y="389" type="curve" smooth="yes"/>
      <point x="333" y="389"/>
      <point x="359" y="375"/>
      <point x="381" y="358" type="curve"/>
      <point x="434" y="396" type="line"/>
      <point x="408" y="431"/>
      <point x="380" y="455"/>
      <point x="343" y="455" type="curve" smooth="yes"/>
      <point x="214" y="455"/>
      <point x="42" y="270"/>
      <point x="42" y="107" type="curve" smooth="yes"/>
      <point x="42" y="20"/>
      <point x="87" y="-12"/>
    </contour>
    <contour>
      <point x="360" y="-12" type="curve" smooth="yes"/>
      <point x="426" y="-12"/>
      <point x="486" y="49"/>
      <point x="521" y="105" type="curve"/>
      <point x="495" y="124" type="line"/>
      <point x="465" y="86"/>
      <point x="439" y="62"/>
      <point x="420" y="62" type="curve" smooth="yes"/>
      <point x="409" y="62"/>
      <point x="402" y="69"/>
      <point x="402" y="82" type="curve" smooth="yes"/>
      <point x="402" y="92"/>
      <point x="404" y="107"/>
      <point x="409" y="126" type="curve" smooth="yes"/>
      <point x="483" y="448" type="line"/>
      <point x="467" y="460" type="line"/>
      <point x="362" y="402" type="line"/>
      <point x="304" y="133" type="line" smooth="yes"/>
      <point x="298" y="104"/>
      <point x="295" y="83"/>
      <point x="295" y="58" type="curve" smooth="yes"/>
      <point x="295" y="10"/>
      <point x="322" y="-12"/>
    </contour>
    <contour>
      <point x="363" y="506" type="curve" smooth="yes"/>
      <point x="419" y="506"/>
      <point x="476" y="547"/>
      <point x="476" y="621" type="curve" smooth="yes"/>
      <point x="476" y="675"/>
      <point x="432" y="709"/>
      <point x="379" y="709" type="curve" smooth="yes"/>
      <point x="321" y="709"/>
      <point x="264" y="667"/>
      <point x="264" y="597" type="curve" smooth="yes"/>
      <point x="264" y="541"/>
      <point x="307" y="506"/>
    </contour>
    <contour>
      <point x="363" y="549" type="curve" smooth="yes"/>
      <point x="331" y="549"/>
      <point x="314" y="574"/>
      <point x="314" y="600" type="curve" smooth="yes"/>
      <point x="314" y="633"/>
      <point x="338" y="667"/>
      <point x="376" y="667" type="curve" smooth="yes"/>
      <point x="409" y="667"/>
      <point x="425" y="641"/>
      <point x="425" y="615" type="curve" smooth="yes"/>
      <point x="425" y="579"/>
      <point x="399" y="549"/>
    </contour>
  </outline>
</glyph>
<glyph name="ae" format="2">
  <advance width="665"/>
  <unicode hex="00E6"/>
  <anchor x="441" y="471" name="aboveLC"/>
  <anchor x="312" y="-20" name="belowLC"/>
  <anchor x="504" y="0" name="ogonek"/>
  <outline>
    <contour>
      <point x="136" y="-12" type="curve" smooth="yes"/>
      <point x="195" y="-12"/>
      <point x="267" y="37"/>
      <point x="322" y="109" type="curve"/>
      <point x="318" y="146" type="line"/>
      <point x="273" y="96"/>
      <point x="237" y="69"/>
      <point x="205" y="69" type="curve" smooth="yes"/>
      <point x="172" y="69"/>
      <point x="152" y="94"/>
      <point x="152" y="151" type="curve" smooth="yes"/>
      <point x="152" y="222"/>
      <point x="184" y="308"/>
      <point x="227" y="350" type="curve" smooth="yes"/>
      <point x="253" y="376"/>
      <point x="281" y="389"/>
      <point x="305" y="389" type="curve" smooth="yes"/>
      <point x="333" y="389"/>
      <point x="367" y="375"/>
      <point x="391" y="351" type="curve"/>
      <point x="445" y="393" type="line"/>
      <point x="421" y="428"/>
      <point x="383" y="455"/>
      <point x="343" y="455" type="curve" smooth="yes"/>
      <point x="214" y="455"/>
      <point x="42" y="270"/>
      <point x="42" y="107" type="curve" smooth="yes"/>
      <point x="42" y="20"/>
      <point x="87" y="-12"/>
    </contour>
    <contour>
      <point x="454" y="-12" type="curve" smooth="yes"/>
      <point x="542" y="-12"/>
      <point x="610" y="51"/>
      <point x="648" y="119" type="curve"/>
      <point x="624" y="138" type="line"/>
      <point x="597" y="103"/>
      <point x="555" y="70"/>
      <point x="499" y="70" type="curve" smooth="yes"/>
      <point x="442" y="70"/>
      <point x="406" y="106"/>
      <point x="406" y="187" type="curve" smooth="yes"/>
      <point x="406" y="304"/>
      <point x="491" y="408"/>
      <point x="546" y="408" type="curve" smooth="yes"/>
      <point x="569" y="408"/>
      <point x="586" y="391"/>
      <point x="586" y="359" type="curve" smooth="yes"/>
      <point x="586" y="304"/>
      <point x="533" y="232"/>
      <point x="362" y="189" type="curve"/>
      <point x="365" y="154" type="line"/>
      <point x="587" y="205"/>
      <point x="677" y="285"/>
      <point x="677" y="360" type="curve" smooth="yes"/>
      <point x="677" y="418"/>
      <point x="635" y="455"/>
      <point x="562" y="455" type="curve" smooth="yes"/>
      <point x="416" y="455"/>
      <point x="301" y="314"/>
      <point x="301" y="159" type="curve" smooth="yes"/>
      <point x="301" y="47"/>
      <point x="364" y="-12"/>
    </contour>
  </outline>
</glyph>
<glyph name="egrave" format="2">
  <advance width="411"/>
  <unicode hex="00E8"/>
  <anchor x="370" y="694" name="aboveLC"/>
  <anchor x="197" y="-20" name="belowLC"/>
  <anchor x="249" y="0" name="ogonek"/>
  <outline>
    <contour>
      <point x="199" y="-12" type="curve" smooth="yes"/>
      <point x="287" y="-12"/>
      <point x="356" y="51"/>
      <point x="394" y="119" type="curve"/>
      <point x="369" y="138" type="line"/>
      <point x="342" y="103"/>
      <point x="300" y="70"/>
      <point x="245" y="70" type="curve" smooth="yes"/>
      <point x="187" y="70"/>
      <point x="152" y="106"/>
      <point x="152" y="187" type="curve" smooth="yes"/>
      <point x="152" y="304"/>
      <point x="236" y="408"/>
      <point x="291" y="408" type="curve" smooth="yes"/>
      <point x="315" y="408"/>
      <point x="332" y="391"/>
      <point x="332" y="359" type="curve" smooth="yes"/>
      <point x="332" y="304"/>
      <point x="278" y="232"/>
      <point x="108" y="189" type="curve"/>
      <point x="111" y="154" type="line"/>
      <point x="333" y="205"/>
      <point x="422" y="285"/>
      <point x="422" y="360" type="curve" smooth="yes"/>
      <point x="422" y="418"/>
      <point x="381" y="455"/>
      <point x="308" y="455" type="curve" smooth="yes"/>
      <point x="161" y="455"/>
      <point x="46" y="314"/>
      <point x="46" y="159" type="curve" smooth="yes"/>
      <point x="46" y="47"/>
      <point x="109" y="-12"/>
    </contour>
    <contour>
      <point x="344" y="509" type="line"/>
      <point x="325" y="558"/>
      <point x="308" y="607"/>
      <point x="289" y="655" type="curve" smooth="yes"/>
      <point x="274" y="698"/>
      <point x="253" y="713"/>
      <point x="228" y="713" type="curve" smooth="yes"/>
      <point x="204" y="713"/>
      <point x="180" y="695"/>
      <point x="180" y="668" type="curve" smooth="yes"/>
      <point x="180" y="644"/>
      <point x="192" y="624"/>
      <point x="216" y="600" type="curve" smooth="yes"/>
      <point x="250" y="564"/>
      <point x="285" y="529"/>
      <point x="319" y="494" type="curve"/>
    </contour>
  </outline>
</glyph>
<glyph name="idieresis" format="2">
  <advance width="288"/>
  <unicode hex="00EF"/>
  <anchor x="202" y="471" name="aboveLC"/>
  <anchor x="133" y="-20" name="belowLC"/>
  <anchor x="175" y="0" name="ogonek"/>
  <outline>
    <contour>
      <point x="152" y="556" type="curve" smooth="yes"/>
      <point x="185" y="556"/>
      <point x="217" y="582"/>
      <point x="217" y="623" type="curve" smooth="yes"/>
      <point x="217" y="654"/>
      <point x="193" y="674"/>
      <point x="163" y="674" type="curve" smooth="yes"/>
      <point x="131" y="674"/>
      <point x="99" y="649"/>
      <point x="99" y="609" type="curve" smooth="yes"/>
      <point x="99" y="575"/>
      <point x="124" y="556"/>
    </contour>
    <contour>
      <point x="320" y="556" type="curve" smooth="yes"/>
      <point x="353" y="556"/>
      <point x="384" y="582"/>
      <point x="384" y="623" type="curve" smooth="yes"/>
      <point x="384" y="654"/>
      <point x="360" y="674"/>
      <point x="331" y="674" type="curve" smooth="yes"/>
      <point x="299" y="674"/>
      <point x="266" y="649"/>
      <point x="266" y="609" type="curve" smooth="yes"/>
      <point x="266" y="575"/>
      <point x="291" y="556"/>
    </contour>
    <contour>
      <point x="69" y="42" type="curve" smooth="yes"/>
      <point x="69" y="6"/>
      <point x="96" y="-12"/>
      <point x="132" y="-12" type="curve" smooth="yes"/>
      <point x="207" y="-12"/>
      <point x="261" y="46"/>
      <point x="299" y="104" type="curve"/>
      <point x="273" y="123" type="line"/>
      <point x="241" y="82"/>
      <point x="217" y="62"/>
      <point x="199" y="62" type="curve" smooth="yes"/>
      <point x="190" y="62"/>
      <point x="182" y="69"/>
      <point x="182" y="82" type="curve" smooth="yes"/>
      <point x="182" y="92"/>
      <point x="184" y="107"/>
      <point x="189" y="126" type="curve" smooth="yes"/>
      <point x="257" y="444" type="line"/>
      <point x="242" y="455" type="line"/>
      <point x="62" y="405" type="line"/>
      <point x="57" y="373" type="line"/>
      <point x="154" y="360" type="line"/>
      <point x="135" y="381" type="line"/>
      <point x="81" y="124" type="line" smooth="yes"/>
      <point x="75" y="92"/>
      <point x="69" y="63"/>
    </contour>
  </outline>
</glyph>
<glyph name="oacute" format="2">
  <advance width="474"/>
  <unicode hex="00F3"/>
  <anchor x="345" y="712" name="aboveLC"/>
  <anchor x="205" y="-20" name="belowLC"/>
  <anchor x="374" y="445" name="hornLC"/>
  <anchor x="276" y="0" name="ogonek"/>
  <outline>
    <contour>
      <point x="214" y="-12" type="curve" smooth="yes"/>
      <point x="358" y="-12"/>
      <point x="470" y="128"/>
      <point x="470" y="284" type="curve" smooth="yes"/>
      <point x="470" y="399"/>
      <point x="399" y="455"/>
      <point x="303" y="455" type="curve" smooth="yes"/>
      <point x="159" y="455"/>
      <point x="45" y="315"/>
      <point x="45" y="157" type="curve" smooth="yes"/>
      <point x="45" y="42"/>
      <point x="120" y="-12"/>
    </contour>
    <contour>
      <point x="225" y="32" type="curve" smooth="yes"/>
      <point x="186" y="32"/>
      <point x="157" y="60"/>
      <point x="157" y="146" type="curve" smooth="yes"/>
      <point x="157" y="275"/>
      <point x="214" y="409"/>
      <point x="292" y="409" type="curve" smooth="yes"/>
      <point x="331" y="409"/>
      <point x="358" y="380"/>
      <point x="358" y="297" type="curve" smooth="yes"/>
      <point x="358" y="170"/>
      <point x="304" y="32"/>
    </contour>
    <contour>
      <point x="286" y="509" type="curve"/>
      <point x="312" y="493" type="line"/>
      <point x="346" y="529"/>
      <point x="380" y="564"/>
      <point x="414" y="600" type="curve" smooth="yes"/>
      <point x="437" y="624"/>
      <point x="449" y="644"/>
      <point x="449" y="667" type="curve" smooth="yes"/>
      <point x="449" y="695"/>
      <point x="426" y="712"/>
      <point x="402" y="712" type="curve" smooth="yes"/>
      <point x="377" y="712"/>
      <point x="356" y="698"/>
      <point x="341" y="655" type="curve" smooth="yes"/>
      <point x="322" y="607"/>
      <point x="304" y="558"/>
    </contour>
  </outline>
</glyph>
<glyph name="ocircumflex" format="2">
  <advance width="474"/>
  <unicode hex="00F4"/>
  <anchor x="345" y="689" name="aboveLC"/>
  <anchor x="205" y="-20" name="belowLC"/>
  <anchor x="374" y="445" name="hornLC"/>
  <anchor x="276" y="0" name="ogonek"/>
  <outline>
    <contour>
      <point x="214" y="-12" type="curve" smooth="yes"/>
      <point x="358" y="-12"/>
      <point x="470" y="128"/>
      <point x="470" y="284" type="curve" smooth="yes"/>
      <point x="470" y="399"/>
      <point x="399" y="455"/>
      <point x="303" y="455" type="curve" smooth="yes"/>
      <point x="159" y="455"/>
      <point x="45" y="315"/>
      <point x="45" y="157" type="curve" smooth="yes"/>
      <point x="45" y="42"/>
      <point x="120" y="-12"/>
    </contour>
    <contour>
      <point x="225" y="32" type="curve" smooth="yes"/>
      <point x="186" y="32"/>
      <point x="157" y="60"/>
      <point x="157" y="146" type="curve" smooth="yes"/>
      <point x="157" y="275"/>
      <point x="214" y="409"/>
      <point x="292" y="409" type="curve" smooth="yes"/>
      <point x="331" y="409"/>
      <point x="358" y="380"/>
      <point x="358" y="297" type="curve" smooth="yes"/>
      <point x="358" y="170"/>
      <point x="304" y="32"/>
    </contour>
    <contour>
      <point x="430" y="501" type="line"/>
      <point x="459" y="523" type="line"/>
      <point x="365" y="689" type="line"/>
      <point x="316" y="689" type="line"/>
      <point x="168" y="527" type="line"/>
      <point x="191" y="500" type="line"/>
      <point x="364" y="634" type="line"/>
      <point x="299" y="634" type="line"/>
    </contour>
  </outline>
</glyph>
<glyph name="otilde" format="2">
  <advance width="474"/>
  <unicode hex="00F5"/>
  <anchor x="345" y="676" name="aboveLC"/>
  <anchor x="205" y="-20" name="belowLC"/>
  <anchor x="374" y="445" name="hornLC"/>
  <anchor x="276" y="0" name="ogonek"/>
  <outline>
    <contour>
      <point x="214" y="-12" type="curve" smooth="yes"/>
      <point x="358" y="-12"/>
      <point x="470" y="128"/>
      <point x="470" y="284" type="curve" smooth="yes"/>
      <point x="470" y="399"/>
      <point x="399" y="455"/>
      <point x="303" y="455" type="curve" smooth="yes"/>
      <point x="159" y="455"/>
      <point x="45" y="315"/>
      <point x="45" y="157" type="curve" smooth="yes"/>
      <point x="45" y="42"/>
      <point x="120" y="-12"/>
    </contour>
    <contour>
      <point x="225" y="32" type="curve" smooth="yes"/>
      <point x="186" y="32"/>
      <point x="157" y="60"/>
      <point x="157" y="146" type="curve" smooth="yes"/>
      <point x="157" y="275"/>
      <point x="214" y="409"/>
      <point x="292" y="409" type="curve" smooth="yes"/>
      <point x="331" y="409"/>
      <point x="358" y="380"/>
      <point x="358" y="297" type="curve" smooth="yes"/>
      <point x="358" y="170"/>
      <point x="304" y="32"/>
    </contour>
    <contour>
      <point x="159" y="541" type="curve"/>
      <point x="189" y="529" type="line"/>
      <point x="204" y="573"/>
      <point x="227" y="596"/>
      <point x="252" y="596" type="curve" smooth="yes"/>
      <point x="279" y="596"/>
      <point x="297" y="575"/>
      <point x="314" y="558" type="curve" smooth="yes"/>
      <point x="331" y="542"/>
      <point x="352" y="528"/>
      <point x="386" y="528" type="curve" smooth="yes"/>
      <point x="435" y="528"/>
      <point x="475" y="565"/>
      <point x="495" y="653" type="curve"/>
      <point x="465" y="666" type="line"/>
      <point x="450" y="621"/>
      <point x="427" y="598"/>
      <point x="403" y="598" type="curve" smooth="yes"/>
      <point x="378" y="598"/>
      <point x="361" y="617"/>
      <point x="342" y="634" type="curve" smooth="yes"/>
      <point x="325" y="651"/>
      <point x="307" y="666"/>
      <point x="271" y="666" type="curve" smooth="yes"/>
      <point x="223" y="666"/>
      <point x="178" y="625"/>
    </contour>
  </outline>
</glyph>
<glyph name="yacute" format="2">
  <advance width="471"/>
  <unicode hex="00FD"/>
  <anchor x="356" y="707" name="aboveLC"/>
  <anchor x="26" y="-226" name="belowLC"/>
  <outline>
    <contour>
      <point x="-60" y="-147" type="curve"/>
      <point x="-59" y="-188"/>
      <point x="-29" y="-213"/>
      <point x="13" y="-213" type="curve" smooth="yes"/>
      <point x="67" y="-213"/>
      <point x="116" y="-177"/>
      <point x="168" y="-123" type="curve" smooth="yes"/>
      <point x="212" y="-75"/>
      <point x="241" y="-35"/>
      <point x="268" y="1" type="curve" smooth="yes"/>
      <point x="320" y="74"/>
      <point x="356" y="138"/>
      <point x="391" y="194" type="curve" smooth="yes"/>
      <point x="423" y="246"/>
      <point x="445" y="287"/>
      <point x="464" y="325" type="curve" smooth="yes"/>
      <point x="484" y="363"/>
      <point x="495" y="385"/>
      <point x="495" y="414" type="curve" smooth="yes"/>
      <point x="495" y="440"/>
      <point x="474" y="458"/>
      <point x="448" y="458" type="curve" smooth="yes"/>
      <point x="409" y="458"/>
      <point x="393" y="431"/>
      <point x="365" y="327" type="curve" smooth="yes"/>
      <point x="337" y="227"/>
      <point x="309" y="147"/>
      <point x="259" y="37" type="curve"/>
      <point x="230" y="-1"/>
      <point x="197" y="-38"/>
      <point x="164" y="-72" type="curve" smooth="yes"/>
      <point x="126" y="-112"/>
      <point x="84" y="-145"/>
      <point x="38" y="-171" type="curve"/>
      <point x="102" y="-172" type="line"/>
      <point x="79" y="-148" type="line" smooth="yes"/>
      <point x="50" y="-115"/>
      <point x="29" y="-99"/>
      <point x="-1" y="-99" type="curve" smooth="yes"/>
      <point x="-31" y="-99"/>
      <point x="-54" y="-116"/>
    </contour>
    <contour>
      <point x="264" y="36" type="line"/>
      <point x="257" y="133"/>
      <point x="248" y="234"/>
      <point x="236" y="345" type="curve" smooth="yes"/>
      <point x="227" y="429"/>
      <point x="208" y="455"/>
      <point x="166" y="455" type="curve" smooth="yes"/>
      <point x="123" y="455"/>
      <point x="80" y="422"/>
      <point x="34" y="347" type="curve"/>
      <point x="56" y="327" type="line"/>
      <point x="80" y="360"/>
      <point x="92" y="369"/>
      <point x="104" y="369" type="curve" smooth="yes"/>
      <point x="118" y="369"/>
      <point x="125" y="361"/>
      <point x="134" y="287" type="curve" smooth="yes"/>
      <point x="153" y="156"/>
      <point x="171" y="58"/>
      <point x="185" y="-63" type="curve"/>
    </contour>
    <contour>
      <point x="298" y="505" type="curve"/>
      <point x="324" y="488" type="line"/>
      <point x="358" y="524"/>
      <point x="392" y="560"/>
      <point x="425" y="596" type="curve" smooth="yes"/>
      <point x="449" y="619"/>
      <point x="461" y="640"/>
      <point x="461" y="662" type="curve" smooth="yes"/>
      <point x="461" y="690"/>
      <point x="438" y="707"/>
      <point x="414" y="707" type="curve" smooth="yes"/>
      <point x="389" y="707"/>
      <point x="368" y="692"/>
      <point x="353" y="650" type="curve" smooth="yes"/>
      <point x="333" y="601"/>
      <point x="316" y="552"/>
    </contour>
  </outline>
</glyph>
<glyph name="florin" format="2">
  <advance width="490"/>
  <unicode hex="0192"/>
  <outline>
    <contour>
      <point x="141" y="320" type="line"/>
      <point x="424" y="320" type="line"/>
      <point x="434" y="370" type="line"/>
      <point x="151" y="370" type="line"/>
    </contour>
    <contour>
      <point x="329" y="328" type="line" smooth="yes"/>
      <point x="351" y="431"/>
      <point x="359" y="483"/>
      <point x="384" y="523" type="curve" smooth="yes"/>
      <point x="399" y="547"/>
      <point x="418" y="563"/>
      <point x="445" y="573" type="curve"/>
      <point x="403" y="571" type="line"/>
      <point x="430" y="528" type="line" smooth="yes"/>
      <point x="448" y="500"/>
      <point x="463" y="492"/>
      <point x="485" y="492" type="curve" smooth="yes"/>
      <point x="514" y="492"/>
      <point x="535" y="511"/>
      <point x="539" y="544" type="curve"/>
      <point x="528" y="578"/>
      <point x="496" y="598"/>
      <point x="446" y="598" type="curve" smooth="yes"/>
      <point x="402" y="598"/>
      <point x="360" y="585"/>
      <point x="323" y="545" type="curve" smooth="yes"/>
      <point x="282" y="503"/>
      <point x="255" y="439"/>
      <point x="231" y="328" type="curve" smooth="yes"/>
      <point x="204" y="196" type="line" smooth="yes"/>
      <point x="179" y="80"/>
      <point x="170" y="23"/>
      <point x="144" y="-20" type="curve" smooth="yes"/>
      <point x="129" y="-43"/>
      <point x="111" y="-58"/>
      <point x="83" y="-69" type="curve"/>
      <point x="122" y="-63" type="line"/>
      <point x="96" y="-22" type="line" smooth="yes"/>
      <point x="80" y="4"/>
      <point x="64" y="13"/>
      <point x="43" y="13" type="curve" smooth="yes"/>
      <point x="15" y="13"/>
      <point x="-2" y="-2"/>
      <point x="-11" y="-31" type="curve"/>
      <point x="-6" y="-69"/>
      <point x="31" y="-94"/>
      <point x="83" y="-94" type="curve" smooth="yes"/>
      <point x="126" y="-94"/>
      <point x="168" y="-80"/>
      <point x="205" y="-41" type="curve" smooth="yes"/>
      <point x="251" y="5"/>
      <point x="276" y="77"/>
      <point x="304" y="211" type="curve" smooth="yes"/>
    </contour>
  </outline>
</glyph>
<glyph name="dotaccent" format="2">
  <advance width="368"/>
  <unicode hex="02D9"/>
  <anchor x="250" y="471" name="_aboveLC"/>
  <anchor x="290" y="664" name="aboveLC"/>
  <outline>
    <contour>
      <point x="276" y="556" type="curve" smooth="yes"/>
      <point x="311" y="556"/>
      <point x="343" y="588"/>
      <point x="343" y="627" type="curve" smooth="yes"/>
      <point x="343" y="662"/>
      <point x="321" y="686"/>
      <point x="287" y="686" type="curve" smooth="yes"/>
      <point x="253" y="686"/>
      <point x="221" y="655"/>
      <point x="221" y="614" type="curve" smooth="yes"/>
      <point x="221" y="578"/>
      <point x="244" y="556"/>
    </contour>
  </outline>
</glyph>
<glyph name="emdash" format="2">
  <advance width="765"/>
  <unicode hex="2014"/>
  <outline>
    <contour>
      <point x="47" y="195" type="line"/>
      <point x="736" y="195" type="line"/>
      <point x="736" y="269" type="line"/>
      <point x="47" y="269" type="line"/>
    </contour>
  </outline>
</glyph>
<glyph name="ellipsis" format="2">
  <advance width="849"/>
  <unicode hex="2026"/>
  <outline>
    <contour>
      <point x="116" y="-11" type="curve" smooth="yes"/>
      <point x="159" y="-11"/>
      <point x="196" y="22"/>
      <point x="196" y="66" type="curve" smooth="yes"/>
      <point x="196" y="102"/>
      <point x="169" y="132"/>
      <point x="129" y="132" type="curve" smooth="yes"/>
      <point x="86" y="132"/>
      <point x="48" y="98"/>
      <point x="48" y="53" type="curve" smooth="yes"/>
      <point x="48" y="17"/>
      <point x="76" y="-11"/>
    </contour>
    <contour>
      <point x="400" y="-11" type="curve" smooth="yes"/>
      <point x="443" y="-11"/>
      <point x="480" y="22"/>
      <point x="480" y="66" type="curve" smooth="yes"/>
      <point x="480" y="102"/>
      <point x="452" y="132"/>
      <point x="413" y="132" type="curve" smooth="yes"/>
      <point x="369" y="132"/>
      <point x="332" y="98"/>
      <point x="332" y="53" type="curve" smooth="yes"/>
      <point x="332" y="17"/>
      <point x="360" y="-11"/>
    </contour>
    <contour>
      <point x="684" y="-11" type="curve" smooth="yes"/>
      <point x="726" y="-11"/>
      <point x="763" y="22"/>
      <point x="763" y="66" type="curve" smooth="yes"/>
      <point x="763" y="102"/>
      <point x="736" y="132"/>
      <point x="697" y="132" type="curve" smooth="yes"/>
      <point x="654" y="132"/>
      <point x="615" y="98"/>
      <point x="615" y="53" type="curve" smooth="yes"/>
      <point x="615" y="17"/>
      <point x="644" y="-11"/>
    </contour>
  </outline>
</glyph>
<glyph name="guilsinglleft" format="2">
  <advance width="339"/>
  <unicode hex="2039"/>
  <outline>
    <contour>
      <point x="244" y="34" type="line"/>
      <point x="277" y="64" type="line"/>
      <point x="132" y="260" type="line"/>
      <point x="122" y="204" type="line"/>
      <point x="325" y="398" type="line"/>
      <point x="300" y="429" type="line"/>
      <point x="74" y="260" type="line"/>
      <point x="64" y="204" type="line"/>
    </contour>
  </outline>
</glyph>
<glyph name="Euro" format="2">
  <advance width="490"/>
  <unicode hex="20AC"/>
  <outline>
    <contour>
      <point x="15" y="211" type="line"/>
      <point x="367" y="211" type="line"/>
      <point x="377" y="261" type="line"/>
      <point x="25" y="261" type="line"/>
    </contour>
    <contour>
      <point x="41" y="336" type="line"/>
      <point x="392" y="336" type="line"/>
      <point x="402" y="387" type="line"/>
      <point x="51" y="387" type="line"/>
    </contour>
    <contour>
      <point x="279" y="-15" type="curve" smooth="yes"/>
      <point x="368" y="-15"/>
      <point x="446" y="30"/>
      <point x="454" y="120" type="curve"/>
      <point x="446" y="139"/>
      <point x="430" y="149"/>
      <point x="410" y="149" type="curve" smooth="yes"/>
      <point x="381" y="149"/>
      <point x="362" y="135"/>
      <point x="346" y="91" type="curve" smooth="yes"/>
      <point x="320" y="10" type="line"/>
      <point x="346" y="34" type="line"/>
      <point x="330" y="30"/>
      <point x="316" y="28"/>
      <point x="302" y="28" type="curve" smooth="yes"/>
      <point x="228" y="28"/>
      <point x="182" y="88"/>
      <point x="182" y="204" type="curve" smooth="yes"/>
      <point x="182" y="394"/>
      <point x="269" y="552"/>
      <point x="385" y="552" type="curve" smooth="yes"/>
      <point x="406" y="552"/>
      <point x="426" y="549"/>
      <point x="447" y="541" type="curve"/>
      <point x="420" y="565" type="line"/>
      <point x="425" y="487" type="line" smooth="yes"/>
      <point x="427" y="432"/>
      <point x="442" y="418"/>
      <point x="474" y="418" type="curve" smooth="yes"/>
      <point x="494" y="418"/>
      <point x="515" y="431"/>
      <point x="522" y="458" type="curve"/>
      <point x="519" y="542"/>
      <point x="465" y="598"/>
      <point x="378" y="598" type="curve" smooth="yes"/>
      <point x="207" y="598"/>
      <point x="78" y="439"/>
      <point x="78" y="218" type="curve" smooth="yes"/>
      <point x="78" y="74"/>
      <point x="149" y="-15"/>
    </contour>
  </outline>
</glyph>
<glyph name="infinity" format="2">
  <advance width="739"/>
  <unicode hex="221E"/>
  <outline>
    <contour>
      <point x="356" y="256" type="curve" smooth="yes"/>
      <point x="404" y="190"/>
      <point x="461" y="134"/>
      <point x="550" y="134" type="curve" smooth="yes"/>
      <point x="644" y="134"/>
      <point x="705" y="208"/>
      <point x="705" y="305" type="curve" smooth="yes"/>
      <point x="705" y="401"/>
      <point x="648" y="462"/>
      <point x="571" y="462" type="curve" smooth="yes"/>
      <point x="506" y="462"/>
      <point x="448" y="423"/>
      <point x="397" y="322" type="curve"/>
      <point x="413" y="293" type="line"/>
      <point x="468" y="363"/>
      <point x="503" y="390"/>
      <point x="560" y="390" type="curve" smooth="yes"/>
      <point x="616" y="390"/>
      <point x="655" y="357"/>
      <point x="655" y="304" type="curve" smooth="yes"/>
      <point x="655" y="256"/>
      <point x="624" y="226"/>
      <point x="577" y="226" type="curve" smooth="yes"/>
      <point x="526" y="226"/>
      <point x="483" y="274"/>
      <point x="434" y="340" type="curve" smooth="yes"/>
      <point x="386" y="406"/>
      <point x="328" y="462"/>
      <point x="240" y="462" type="curve" smooth="yes"/>
      <point x="145" y="462"/>
      <point x="85" y="389"/>
      <point x="85" y="292" type="curve" smooth="yes"/>
      <point x="85" y="195"/>
      <point x="141" y="134"/>
      <point x="218" y="134" type="curve" smooth="yes"/>
      <point x="284" y="134"/>
      <point x="340" y="173"/>
      <point x="393" y="276" type="curve"/>
      <point x="378" y="303" type="line"/>
      <point x="322" y="233"/>
      <point x="287" y="207"/>
      <point x="230" y="207" type="curve" smooth="yes"/>
      <point x="174" y="207"/>
      <point x="134" y="240"/>
      <point x="134" y="293" type="curve" smooth="yes"/>
      <point x="134" y="340"/>
      <point x="165" y="370"/>
      <point x="213" y="370" type="curve" smooth="yes"/>
      <point x="264" y="370"/>
      <point x="308" y="323"/>
    </contour>
  </outline>
</glyph>
<glyph name="greaterequal" format="2">
  <advance width="495"/>
  <unicode hex="2265"/>
  <outline>
    <contour>
      <point x="65" y="0" type="line"/>
      <point x="476" y="0" type="line"/>
      <point x="476" y="65" type="line"/>
      <point x="65" y="65" type="line"/>
    </contour>
    <contour>
      <point x="460" y="279" type="line"/>
      <point x="460" y="332" type="line"/>
      <point x="106" y="504" type="line"/>
      <point x="77" y="442" type="line"/>
      <point x="410" y="287" type="line"/>
      <point x="410" y="325" type="line"/>
      <point x="77" y="169" type="line"/>
      <point x="106" y="108" type="line"/>
    </contour>
  </outline>
</glyph>
<glyph name="uniA4D3" format="2">
  <advance width="559"/>
  <unicode hex="A4D3"/>
  <outline>
    <contour>
      <point x="199" y="-10" type="curve" smooth="yes"/>
      <point x="437" y="-10"/>
      <point x="550" y="153"/>
      <point x="550" y="329" type="curve" smooth="yes"/>
      <point x="550" y="456"/>
      <point x="462" y="538"/>
      <point x="306" y="538" type="curve" smooth="yes"/>
      <point x="217" y="538"/>
      <point x="161" y="517"/>
      <point x="128" y="503" type="curve" smooth="yes"/>
      <point x="100" y="491"/>
      <point x="91" y="480"/>
      <point x="91" y="463" type="curve" smooth="yes"/>
      <point x="91" y="448"/>
      <point x="94" y="432"/>
      <point x="101" y="420" type="curve" smooth="yes"/>
      <point x="109" y="407"/>
      <point x="118" y="400"/>
      <point x="128" y="400" type="curve" smooth="yes"/>
      <point x="135" y="400"/>
      <point x="147" y="405"/>
      <point x="156" y="409" type="curve" smooth="yes"/>
      <point x="177" y="419"/>
      <point x="227" y="440"/>
      <point x="305" y="440" type="curve" smooth="yes"/>
      <point x="383" y="440"/>
      <point x="429" y="397"/>
      <point x="429" y="313" type="curve" smooth="yes"/>
      <point x="429" y="189"/>
      <point x="334" y="90"/>
      <point x="218" y="90" type="curve" smooth="yes"/>
      <point x="149" y="90"/>
      <point x="91" y="96"/>
      <point x="41" y="110" type="curve" smooth="yes"/>
      <point x="32" y="112"/>
      <point x="27" y="113"/>
      <point x="21" y="113" type="curve" smooth="yes"/>
      <point x="11" y="113"/>
      <point x="4" y="109"/>
      <point x="-3" y="99" type="curve" smooth="yes"/>
      <point x="-13" y="84"/>
      <point x="-17" y="61"/>
      <point x="-17" y="47" type="curve" smooth="yes"/>
      <point x="-17" y="33"/>
      <point x="-15" y="13"/>
      <point x="9" y="9" type="curve" smooth="yes"/>
      <point x="63" y="0"/>
      <point x="124" y="-10"/>
    </contour>
    <contour>
      <point x="118" y="22" type="curve" smooth="yes"/>
      <point x="148" y="22"/>
      <point x="165" y="30"/>
      <point x="171" y="47" type="curve" smooth="yes"/>
      <point x="177" y="63"/>
      <point x="182" y="79"/>
      <point x="191" y="104" type="curve" smooth="yes"/>
      <point x="216" y="177"/>
      <point x="243" y="257"/>
      <point x="274" y="348" type="curve" smooth="yes"/>
      <point x="283" y="374"/>
      <point x="289" y="388"/>
      <point x="294" y="402" type="curve" smooth="yes"/>
      <point x="297" y="410"/>
      <point x="301" y="421"/>
      <point x="301" y="428" type="curve" smooth="yes"/>
      <point x="301" y="437"/>
      <point x="289" y="456"/>
      <point x="250" y="456" type="curve" smooth="yes"/>
      <point x="214" y="456"/>
      <point x="196" y="443"/>
      <point x="189" y="436" type="curve" smooth="yes"/>
      <point x="183" y="430"/>
      <point x="176" y="411"/>
      <point x="172" y="398" type="curve" smooth="yes"/>
      <point x="167" y="382"/>
      <point x="158" y="359"/>
      <point x="151" y="338" type="curve" smooth="yes"/>
      <point x="143" y="313"/>
      <point x="114" y="229"/>
      <point x="82" y="140" type="curve" smooth="yes"/>
      <point x="69" y="104"/>
      <point x="64" y="89"/>
      <point x="54" y="61" type="curve" smooth="yes"/>
      <point x="52" y="56"/>
      <point x="51" y="49"/>
      <point x="51" y="42" type="curve" smooth="yes"/>
      <point x="51" y="35"/>
      <point x="58" y="22"/>
    </contour>
  </outline>
</glyph>
<glyph name="uniA4D4" format="2">
  <advance width="595"/>
  <unicode hex="A4D4"/>
  <outline>
    <contour>
      <point x="103" y="456" type="curve" smooth="yes"/>
      <point x="113" y="440"/>
      <point x="129" y="424"/>
      <point x="167" y="424" type="curve" smooth="yes"/>
      <point x="207" y="424"/>
      <point x="332" y="426"/>
      <point x="391" y="426" type="curve" smooth="yes"/>
      <point x="461" y="426"/>
      <point x="589" y="425"/>
      <point x="610" y="425" type="curve" smooth="yes"/>
      <point x="626" y="425"/>
      <point x="639" y="427"/>
      <point x="645" y="431" type="curve" smooth="yes"/>
      <point x="651" y="435"/>
      <point x="657" y="444"/>
      <point x="657" y="462" type="curve" smooth="yes"/>
      <point x="657" y="478"/>
      <point x="651" y="491"/>
      <point x="639" y="507" type="curve" smooth="yes"/>
      <point x="631" y="518"/>
      <point x="623" y="525"/>
      <point x="613" y="528" type="curve" smooth="yes"/>
      <point x="603" y="531"/>
      <point x="585" y="533"/>
      <point x="561" y="533" type="curve" smooth="yes"/>
      <point x="524" y="533"/>
      <point x="440" y="532"/>
      <point x="406" y="532" type="curve" smooth="yes"/>
      <point x="326" y="532"/>
      <point x="165" y="531"/>
      <point x="138" y="531" type="curve" smooth="yes"/>
      <point x="116" y="531"/>
      <point x="105" y="529"/>
      <point x="98" y="524" type="curve" smooth="yes"/>
      <point x="92" y="520"/>
      <point x="89" y="511"/>
      <point x="89" y="498" type="curve" smooth="yes"/>
      <point x="89" y="485"/>
      <point x="92" y="474"/>
    </contour>
    <contour>
      <point x="221" y="-9" type="curve" smooth="yes"/>
      <point x="266" y="-9"/>
      <point x="290" y="3"/>
      <point x="296" y="23" type="curve" smooth="yes"/>
      <point x="299" y="33"/>
      <point x="310" y="66"/>
      <point x="322" y="104" type="curve" smooth="yes"/>
      <point x="345" y="177"/>
      <point x="375" y="270"/>
      <point x="411" y="366" type="curve" smooth="yes"/>
      <point x="427" y="409"/>
      <point x="437" y="433"/>
      <point x="447" y="457" type="curve" smooth="yes"/>
      <point x="457" y="482"/>
      <point x="460" y="492"/>
      <point x="460" y="500" type="curve" smooth="yes"/>
      <point x="460" y="517"/>
      <point x="439" y="529"/>
      <point x="399" y="529" type="curve" smooth="yes"/>
      <point x="363" y="529"/>
      <point x="346" y="523"/>
      <point x="337" y="516" type="curve" smooth="yes"/>
      <point x="329" y="510"/>
      <point x="321" y="495"/>
      <point x="316" y="480" type="curve" smooth="yes"/>
      <point x="307" y="455"/>
      <point x="302" y="436"/>
      <point x="291" y="403" type="curve" smooth="yes"/>
      <point x="261" y="313"/>
      <point x="232" y="229"/>
      <point x="200" y="140" type="curve" smooth="yes"/>
      <point x="187" y="104"/>
      <point x="173" y="68"/>
      <point x="169" y="56" type="curve" smooth="yes"/>
      <point x="164" y="42"/>
      <point x="161" y="31"/>
      <point x="161" y="20" type="curve" smooth="yes"/>
      <point x="161" y="6"/>
      <point x="177" y="-9"/>
    </contour>
  </outline>
</glyph>
<glyph name="uniA4D6" format="2">
  <advance width="550"/>
  <unicode hex="A4D6"/>
  <outline>
    <contour>
      <point x="352" y="538" type="curve" smooth="yes"/>
      <point x="177" y="538"/>
      <point x="45" y="360"/>
      <point x="45" y="181" type="curve" smooth="yes"/>
      <point x="45" y="78"/>
      <point x="112" y="-10"/>
      <point x="233" y="-10" type="curve" smooth="yes"/>
      <point x="363" y="-10"/>
      <point x="438" y="66"/>
      <point x="475" y="161" type="curve" smooth="yes"/>
      <point x="478" y="170"/>
      <point x="479" y="179"/>
      <point x="479" y="185" type="curve" smooth="yes"/>
      <point x="479" y="208"/>
      <point x="429" y="215"/>
      <point x="405" y="215" type="curve" smooth="yes"/>
      <point x="390" y="215"/>
      <point x="362" y="211"/>
      <point x="357" y="200" type="curve" smooth="yes"/>
      <point x="354" y="193"/>
      <point x="350" y="177"/>
      <point x="342" y="160" type="curve" smooth="yes"/>
      <point x="327" y="127"/>
      <point x="289" y="105"/>
      <point x="251" y="105" type="curve" smooth="yes"/>
      <point x="199" y="105"/>
      <point x="171" y="134"/>
      <point x="171" y="192" type="curve" smooth="yes"/>
      <point x="171" y="317"/>
      <point x="259" y="424"/>
      <point x="336" y="424" type="curve" smooth="yes"/>
      <point x="373" y="424"/>
      <point x="390" y="401"/>
      <point x="399" y="384" type="curve" smooth="yes"/>
      <point x="405" y="373"/>
      <point x="416" y="364"/>
      <point x="430" y="364" type="curve" smooth="yes"/>
      <point x="457" y="364"/>
      <point x="514" y="398"/>
      <point x="514" y="424" type="curve" smooth="yes"/>
      <point x="514" y="448"/>
      <point x="499" y="470"/>
      <point x="475" y="494" type="curve" smooth="yes"/>
      <point x="454" y="515"/>
      <point x="414" y="538"/>
    </contour>
    <contour>
      <point x="533" y="192" type="curve" smooth="yes"/>
      <point x="538" y="201"/>
      <point x="547" y="223"/>
      <point x="547" y="239" type="curve" smooth="yes"/>
      <point x="547" y="261"/>
      <point x="540" y="270"/>
      <point x="510" y="270" type="curve" smooth="yes"/>
      <point x="489" y="270"/>
      <point x="445" y="269"/>
      <point x="402" y="269" type="curve" smooth="yes"/>
      <point x="383" y="269"/>
      <point x="353" y="270"/>
      <point x="327" y="270" type="curve" smooth="yes"/>
      <point x="317" y="270"/>
      <point x="303" y="268"/>
      <point x="297" y="265" type="curve" smooth="yes"/>
      <point x="290" y="262"/>
      <point x="282" y="255"/>
      <point x="274" y="240" type="curve" smooth="yes"/>
      <point x="266" y="224"/>
      <point x="261" y="206"/>
      <point x="261" y="196" type="curve" smooth="yes"/>
      <point x="261" y="174"/>
      <point x="267" y="166"/>
      <point x="298" y="166" type="curve" smooth="yes"/>
      <point x="334" y="166"/>
      <point x="387" y="169"/>
      <point x="418" y="169" type="curve" smooth="yes"/>
      <point x="435" y="169"/>
      <point x="462" y="167"/>
      <point x="492" y="167" type="curve" smooth="yes"/>
      <point x="511" y="167"/>
      <point x="521" y="170"/>
    </contour>
  </outline>
</glyph>
<glyph name="uniA4DB" format="2">
  <advance width="496"/>
  <unicode hex="A4DB"/>
  <outline>
    <contour>
      <point x="490" y="358" type="curve" smooth="yes"/>
      <point x="490" y="472"/>
      <point x="412" y="538"/>
      <point x="300" y="538" type="curve" smooth="yes"/>
      <point x="228" y="538"/>
      <point x="181" y="514"/>
      <point x="149" y="491" type="curve" smooth="yes"/>
      <point x="118" y="469"/>
      <point x="96" y="442"/>
      <point x="96" y="424" type="curve" smooth="yes"/>
      <point x="96" y="401"/>
      <point x="135" y="364"/>
      <point x="164" y="364" type="curve" smooth="yes"/>
      <point x="184" y="364"/>
      <point x="194" y="372"/>
      <point x="206" y="384" type="curve" smooth="yes"/>
      <point x="231" y="409"/>
      <point x="252" y="424"/>
      <point x="289" y="424" type="curve" smooth="yes"/>
      <point x="345" y="424"/>
      <point x="364" y="383"/>
      <point x="364" y="347" type="curve" smooth="yes"/>
      <point x="364" y="215"/>
      <point x="275" y="105"/>
      <point x="188" y="105" type="curve" smooth="yes"/>
      <point x="162" y="105"/>
      <point x="135" y="123"/>
      <point x="124" y="155" type="curve" smooth="yes"/>
      <point x="118" y="172"/>
      <point x="110" y="183"/>
      <point x="91" y="183" type="curve" smooth="yes"/>
      <point x="61" y="183"/>
      <point x="5" y="150"/>
      <point x="5" y="119" type="curve" smooth="yes"/>
      <point x="5" y="90"/>
      <point x="23" y="61"/>
      <point x="48" y="36" type="curve" smooth="yes"/>
      <point x="74" y="9"/>
      <point x="117" y="-10"/>
      <point x="179" y="-10" type="curve" smooth="yes"/>
      <point x="353" y="-10"/>
      <point x="490" y="190"/>
    </contour>
  </outline>
</glyph>
<glyph name="uniA4DC" format="2">
  <advance width="572" height="1000"/>
  <unicode hex="A4DC"/>
  <outline>
    <contour>
      <point x="130" y="448" type="curve" smooth="yes"/>
      <point x="137" y="440"/>
      <point x="152" y="425"/>
      <point x="176" y="425" type="curve" smooth="yes"/>
      <point x="213" y="425"/>
      <point x="247" y="426"/>
      <point x="286" y="426" type="curve" smooth="yes"/>
      <point x="315" y="426"/>
      <point x="334" y="427"/>
      <point x="367" y="427" type="curve" smooth="yes"/>
      <point x="412" y="427"/>
      <point x="470" y="426"/>
      <point x="515" y="426" type="curve" smooth="yes"/>
      <point x="521" y="426"/>
      <point x="548" y="426"/>
      <point x="553" y="429" type="curve"/>
      <point x="565" y="436"/>
      <point x="572" y="444"/>
      <point x="572" y="480" type="curve" smooth="yes"/>
      <point x="572" y="485"/>
      <point x="571" y="496"/>
      <point x="565" y="508" type="curve" smooth="yes"/>
      <point x="561" y="516"/>
      <point x="553" y="525"/>
      <point x="545" y="528" type="curve" smooth="yes"/>
      <point x="538" y="531"/>
      <point x="521" y="532"/>
      <point x="486" y="532" type="curve" smooth="yes"/>
      <point x="467" y="532"/>
      <point x="379" y="532"/>
      <point x="331" y="532" type="curve" smooth="yes"/>
      <point x="273" y="532"/>
      <point x="183" y="533"/>
      <point x="153" y="533" type="curve" smooth="yes"/>
      <point x="137" y="533"/>
      <point x="125" y="530"/>
      <point x="120" y="526" type="curve" smooth="yes"/>
      <point x="115" y="522"/>
      <point x="110" y="513"/>
      <point x="110" y="501" type="curve" smooth="yes"/>
      <point x="110" y="480"/>
      <point x="121" y="458"/>
    </contour>
    <contour>
      <point x="24" y="21" type="curve" smooth="yes"/>
      <point x="36" y="2"/>
      <point x="51" y="-7"/>
      <point x="89" y="-7" type="curve" smooth="yes"/>
      <point x="107" y="-7"/>
      <point x="130" y="-6"/>
      <point x="160" y="-6" type="curve" smooth="yes"/>
      <point x="189" y="-6"/>
      <point x="237" y="-5"/>
      <point x="270" y="-5" type="curve" smooth="yes"/>
      <point x="316" y="-5"/>
      <point x="383" y="-7"/>
      <point x="429" y="-7" type="curve" smooth="yes"/>
      <point x="455" y="-7"/>
      <point x="482" y="-4"/>
      <point x="489" y="0" type="curve" smooth="yes"/>
      <point x="496" y="4"/>
      <point x="503" y="14"/>
      <point x="503" y="26" type="curve" smooth="yes"/>
      <point x="503" y="56"/>
      <point x="497" y="68"/>
      <point x="489" y="79" type="curve" smooth="yes"/>
      <point x="481" y="90"/>
      <point x="474" y="93"/>
      <point x="467" y="96" type="curve" smooth="yes"/>
      <point x="460" y="99"/>
      <point x="435" y="100"/>
      <point x="420" y="100" type="curve" smooth="yes"/>
      <point x="384" y="100"/>
      <point x="320" y="100"/>
      <point x="286" y="100" type="curve" smooth="yes"/>
      <point x="240" y="100"/>
      <point x="209" y="99"/>
      <point x="173" y="99" type="curve" smooth="yes"/>
      <point x="135" y="99"/>
      <point x="126" y="99"/>
      <point x="96" y="99" type="curve" smooth="yes"/>
      <point x="70" y="99"/>
      <point x="35" y="97"/>
      <point x="28" y="93" type="curve"/>
      <point x="22" y="90"/>
      <point x="11" y="83"/>
      <point x="11" y="71" type="curve" smooth="yes"/>
      <point x="11" y="56"/>
      <point x="15" y="35"/>
    </contour>
    <contour>
      <point x="71" y="5" type="curve" smooth="yes"/>
      <point x="83" y="5"/>
      <point x="100" y="11"/>
      <point x="108" y="17" type="curve" smooth="yes"/>
      <point x="190" y="79"/>
      <point x="518" y="391"/>
      <point x="550" y="423" type="curve" smooth="yes"/>
      <point x="567" y="440"/>
      <point x="571" y="471"/>
      <point x="571" y="478" type="curve" smooth="yes"/>
      <point x="571" y="484"/>
      <point x="570" y="489"/>
      <point x="564" y="498" type="curve" smooth="yes"/>
      <point x="559" y="505"/>
      <point x="539" y="514"/>
      <point x="512" y="514" type="curve" smooth="yes"/>
      <point x="489" y="514"/>
      <point x="468" y="501"/>
      <point x="455" y="487" type="curve" smooth="yes"/>
      <point x="442" y="473"/>
      <point x="93" y="143"/>
      <point x="19" y="87" type="curve" smooth="yes"/>
      <point x="14" y="83"/>
      <point x="12" y="76"/>
      <point x="12" y="69" type="curve" smooth="yes"/>
      <point x="12" y="63"/>
      <point x="13" y="57"/>
      <point x="14" y="54" type="curve" smooth="yes"/>
      <point x="17" y="44"/>
      <point x="24" y="31"/>
      <point x="33" y="22" type="curve" smooth="yes"/>
      <point x="42" y="13"/>
      <point x="56" y="5"/>
    </contour>
  </outline>
</glyph>
<glyph name="uniA4DE" format="2">
  <advance width="535"/>
  <unicode hex="A4DE"/>
  <outline>
    <contour>
      <point x="288" y="-5" type="curve" smooth="yes"/>
      <point x="320" y="-5"/>
      <point x="361" y="5"/>
      <point x="366" y="22" type="curve" smooth="yes"/>
      <point x="371" y="38"/>
      <point x="379" y="66"/>
      <point x="391" y="104" type="curve" smooth="yes"/>
      <point x="414" y="177"/>
      <point x="444" y="270"/>
      <point x="480" y="366" type="curve" smooth="yes"/>
      <point x="496" y="409"/>
      <point x="507" y="436"/>
      <point x="517" y="460" type="curve" smooth="yes"/>
      <point x="527" y="485"/>
      <point x="530" y="495"/>
      <point x="530" y="503" type="curve" smooth="yes"/>
      <point x="530" y="520"/>
      <point x="507" y="532"/>
      <point x="466" y="532" type="curve" smooth="yes"/>
      <point x="437" y="532"/>
      <point x="416" y="526"/>
      <point x="407" y="519" type="curve" smooth="yes"/>
      <point x="399" y="513"/>
      <point x="391" y="498"/>
      <point x="386" y="483" type="curve" smooth="yes"/>
      <point x="377" y="458"/>
      <point x="371" y="436"/>
      <point x="360" y="403" type="curve" smooth="yes"/>
      <point x="330" y="313"/>
      <point x="301" y="229"/>
      <point x="269" y="140" type="curve" smooth="yes"/>
      <point x="256" y="104"/>
      <point x="243" y="73"/>
      <point x="230" y="35" type="curve" smooth="yes"/>
      <point x="228" y="29"/>
      <point x="226" y="23"/>
      <point x="226" y="16" type="curve" smooth="yes"/>
      <point x="226" y="8"/>
      <point x="256" y="-5"/>
    </contour>
    <contour>
      <point x="99" y="253" type="curve" smooth="yes"/>
      <point x="108" y="244"/>
      <point x="123" y="233"/>
      <point x="158" y="233" type="curve" smooth="yes"/>
      <point x="185" y="233"/>
      <point x="245" y="232"/>
      <point x="279" y="232" type="curve" smooth="yes"/>
      <point x="324" y="232"/>
      <point x="371" y="230"/>
      <point x="414" y="230" type="curve" smooth="yes"/>
      <point x="458" y="230"/>
      <point x="490" y="255"/>
      <point x="490" y="285" type="curve" smooth="yes"/>
      <point x="490" y="308"/>
      <point x="480" y="317"/>
      <point x="474" y="322" type="curve" smooth="yes"/>
      <point x="462" y="331"/>
      <point x="449" y="336"/>
      <point x="434" y="336" type="curve" smooth="yes"/>
      <point x="398" y="336"/>
      <point x="329" y="335"/>
      <point x="294" y="335" type="curve" smooth="yes"/>
      <point x="237" y="335"/>
      <point x="176" y="336"/>
      <point x="156" y="336" type="curve" smooth="yes"/>
      <point x="124" y="336"/>
      <point x="110" y="326"/>
      <point x="101" y="316" type="curve" smooth="yes"/>
      <point x="94" y="309"/>
      <point x="87" y="295"/>
      <point x="87" y="282" type="curve" smooth="yes"/>
      <point x="87" y="274"/>
      <point x="91" y="261"/>
    </contour>
    <contour>
      <point x="85" y="99" type="curve" smooth="yes"/>
      <point x="48" y="99"/>
      <point x="45" y="101"/>
      <point x="27" y="101" type="curve" smooth="yes"/>
      <point x="-13" y="101"/>
      <point x="-23" y="67"/>
      <point x="-23" y="50" type="curve" smooth="yes"/>
      <point x="-23" y="37"/>
      <point x="-14" y="22"/>
      <point x="-3" y="13" type="curve" smooth="yes"/>
      <point x="14" y="-2"/>
      <point x="53" y="-9"/>
      <point x="93" y="-9" type="curve" smooth="yes"/>
      <point x="136" y="-9"/>
      <point x="303" y="-6"/>
      <point x="319" y="-6" type="curve" smooth="yes"/>
      <point x="336" y="-6"/>
      <point x="373" y="-7"/>
      <point x="388" y="-7" type="curve" smooth="yes"/>
      <point x="410" y="-7"/>
      <point x="419" y="-2"/>
      <point x="424" y="3" type="curve" smooth="yes"/>
      <point x="432" y="11"/>
      <point x="436" y="21"/>
      <point x="436" y="37" type="curve" smooth="yes"/>
      <point x="436" y="67"/>
      <point x="404" y="100"/>
      <point x="367" y="100" type="curve" smooth="yes"/>
      <point x="305" y="100"/>
      <point x="139" y="99"/>
    </contour>
  </outline>
</glyph>
<glyph name="uniA4E2" format="2">
  <advance width="471"/>
  <unicode hex="A4E2"/>
  <guideline x="47" y="233" angle="71"/>
  <outline>
    <contour>
      <point x="310" y="538" type="curve" smooth="yes"/>
      <point x="174" y="538"/>
      <point x="108" y="459"/>
      <point x="108" y="373" type="curve" smooth="yes"/>
      <point x="108" y="307"/>
      <point x="162" y="259"/>
      <point x="213" y="232" type="curve" smooth="yes"/>
      <point x="264" y="205"/>
      <point x="295" y="185"/>
      <point x="295" y="158" type="curve" smooth="yes"/>
      <point x="295" y="133"/>
      <point x="267" y="105"/>
      <point x="226" y="105" type="curve" smooth="yes"/>
      <point x="183" y="105"/>
      <point x="151" y="121"/>
      <point x="130" y="141" type="curve" smooth="yes"/>
      <point x="111" y="160"/>
      <point x="105" y="167"/>
      <point x="98" y="174" type="curve" smooth="yes"/>
      <point x="93" y="179"/>
      <point x="86" y="185"/>
      <point x="73" y="185" type="curve" smooth="yes"/>
      <point x="50" y="185"/>
      <point x="3" y="142"/>
      <point x="3" y="107" type="curve" smooth="yes"/>
      <point x="3" y="88"/>
      <point x="26" y="67"/>
      <point x="43" y="52" type="curve" smooth="yes"/>
      <point x="80" y="20"/>
      <point x="150" y="-8"/>
      <point x="215" y="-8" type="curve" smooth="yes"/>
      <point x="329" y="-8"/>
      <point x="420" y="52"/>
      <point x="420" y="166" type="curve" smooth="yes"/>
      <point x="420" y="240"/>
      <point x="367" y="283"/>
      <point x="311" y="312" type="curve" smooth="yes"/>
      <point x="263" y="337"/>
      <point x="233" y="356"/>
      <point x="233" y="378" type="curve" smooth="yes"/>
      <point x="233" y="402"/>
      <point x="256" y="424"/>
      <point x="306" y="424" type="curve" smooth="yes"/>
      <point x="338" y="424"/>
      <point x="370" y="409"/>
      <point x="387" y="396" type="curve" smooth="yes"/>
      <point x="399" y="387"/>
      <point x="409" y="380"/>
      <point x="421" y="380" type="curve" smooth="yes"/>
      <point x="451" y="380"/>
      <point x="490" y="422"/>
      <point x="490" y="458" type="curve" smooth="yes"/>
      <point x="490" y="473"/>
      <point x="469" y="490"/>
      <point x="440" y="507" type="curve" smooth="yes"/>
      <point x="411" y="524"/>
      <point x="361" y="538"/>
    </contour>
  </outline>
</glyph>
<glyph name="uniA4E5" format="2">
  <advance width="560"/>
  <unicode hex="A4E5"/>
  <outline>
    <contour>
      <point x="140" y="74" type="curve" smooth="yes"/>
      <point x="188" y="169"/>
      <point x="254" y="292"/>
      <point x="310" y="366" type="curve" smooth="yes"/>
      <point x="329" y="391"/>
      <point x="345" y="412"/>
      <point x="354" y="412" type="curve" smooth="yes"/>
      <point x="361" y="412"/>
      <point x="362" y="376"/>
      <point x="362" y="339" type="curve" smooth="yes"/>
      <point x="362" y="252"/>
      <point x="356" y="126"/>
      <point x="353" y="87" type="curve" smooth="yes"/>
      <point x="351" y="58"/>
      <point x="350" y="43"/>
      <point x="350" y="23" type="curve" smooth="yes"/>
      <point x="350" y="6"/>
      <point x="366" y="-8"/>
      <point x="414" y="-8" type="curve" smooth="yes"/>
      <point x="453" y="-8"/>
      <point x="475" y="5"/>
      <point x="476" y="37" type="curve" smooth="yes"/>
      <point x="479" y="121"/>
      <point x="480" y="199"/>
      <point x="480" y="260" type="curve" smooth="yes"/>
      <point x="480" y="312"/>
      <point x="479" y="351"/>
      <point x="477" y="387" type="curve" smooth="yes"/>
      <point x="471" y="501"/>
      <point x="441" y="534"/>
      <point x="392" y="534" type="curve" smooth="yes"/>
      <point x="328" y="534"/>
      <point x="276" y="497"/>
      <point x="203" y="400" type="curve" smooth="yes"/>
      <point x="145" y="323"/>
      <point x="77" y="216"/>
      <point x="3" y="86" type="curve" smooth="yes"/>
      <point x="-12" y="60"/>
      <point x="-27" y="31"/>
      <point x="-27" y="20" type="curve" smooth="yes"/>
      <point x="-27" y="9"/>
      <point x="-19" y="-8"/>
      <point x="31" y="-8" type="curve" smooth="yes"/>
      <point x="75" y="-8"/>
      <point x="101" y="4"/>
      <point x="114" y="26" type="curve" smooth="yes"/>
      <point x="121" y="38"/>
      <point x="126" y="47"/>
    </contour>
  </outline>
</glyph>
<glyph name="uniA4E6" format="2">
  <advance width="559"/>
  <unicode hex="A4E6"/>
  <outline>
    <contour>
      <point x="444" y="435" type="curve" smooth="yes"/>
      <point x="387" y="324"/>
      <point x="318" y="217"/>
      <point x="279" y="162" type="curve" smooth="yes"/>
      <point x="264" y="140"/>
      <point x="246" y="115"/>
      <point x="239" y="115" type="curve" smooth="yes"/>
      <point x="234" y="115"/>
      <point x="232" y="139"/>
      <point x="232" y="185" type="curve" smooth="yes"/>
      <point x="232" y="274"/>
      <point x="238" y="373"/>
      <point x="242" y="432" type="curve" smooth="yes"/>
      <point x="244" y="461"/>
      <point x="245" y="479"/>
      <point x="245" y="494" type="curve" smooth="yes"/>
      <point x="245" y="523"/>
      <point x="216" y="532"/>
      <point x="185" y="532" type="curve" smooth="yes"/>
      <point x="139" y="532"/>
      <point x="119" y="514"/>
      <point x="118" y="474" type="curve" smooth="yes"/>
      <point x="115" y="390"/>
      <point x="113" y="330"/>
      <point x="113" y="269" type="curve" smooth="yes"/>
      <point x="113" y="217"/>
      <point x="113" y="164"/>
      <point x="115" y="118" type="curve" smooth="yes"/>
      <point x="119" y="24"/>
      <point x="141" y="-10"/>
      <point x="200" y="-10" type="curve" smooth="yes"/>
      <point x="274" y="-10"/>
      <point x="323" y="41"/>
      <point x="386" y="125" type="curve" smooth="yes"/>
      <point x="444" y="202"/>
      <point x="503" y="291"/>
      <point x="563" y="390" type="curve" smooth="yes"/>
      <point x="592" y="438"/>
      <point x="620" y="485"/>
      <point x="620" y="501" type="curve" smooth="yes"/>
      <point x="620" y="521"/>
      <point x="604" y="532"/>
      <point x="554" y="532" type="curve" smooth="yes"/>
      <point x="512" y="532"/>
      <point x="488" y="514"/>
      <point x="475" y="492" type="curve" smooth="yes"/>
      <point x="468" y="480"/>
      <point x="458" y="462"/>
    </contour>
  </outline>
</glyph>
<glyph name="uniA4E7" format="2">
  <advance width="634"/>
  <unicode hex="A4E7"/>
  <outline>
    <contour>
      <point x="182" y="272" type="curve" smooth="yes"/>
      <point x="182" y="245"/>
      <point x="212" y="214"/>
      <point x="246" y="214" type="curve" smooth="yes"/>
      <point x="276" y="214"/>
      <point x="375" y="218"/>
      <point x="421" y="218" type="curve" smooth="yes"/>
      <point x="458" y="218"/>
      <point x="515" y="216"/>
      <point x="548" y="216" type="curve" smooth="yes"/>
      <point x="584" y="216"/>
      <point x="606" y="241"/>
      <point x="606" y="271" type="curve" smooth="yes"/>
      <point x="606" y="299"/>
      <point x="579" y="324"/>
      <point x="543" y="324" type="curve" smooth="yes"/>
      <point x="507" y="324"/>
      <point x="453" y="322"/>
      <point x="418" y="322" type="curve" smooth="yes"/>
      <point x="360" y="322"/>
      <point x="278" y="318"/>
      <point x="238" y="318" type="curve" smooth="yes"/>
      <point x="209" y="318"/>
      <point x="182" y="298"/>
    </contour>
    <contour>
      <point x="78" y="-9" type="curve" smooth="yes"/>
      <point x="123" y="-9"/>
      <point x="147" y="3"/>
      <point x="153" y="23" type="curve" smooth="yes"/>
      <point x="156" y="33"/>
      <point x="167" y="66"/>
      <point x="179" y="104" type="curve" smooth="yes"/>
      <point x="202" y="177"/>
      <point x="232" y="270"/>
      <point x="268" y="366" type="curve" smooth="yes"/>
      <point x="284" y="409"/>
      <point x="295" y="436"/>
      <point x="305" y="460" type="curve" smooth="yes"/>
      <point x="315" y="485"/>
      <point x="318" y="495"/>
      <point x="318" y="503" type="curve" smooth="yes"/>
      <point x="318" y="520"/>
      <point x="297" y="532"/>
      <point x="257" y="532" type="curve" smooth="yes"/>
      <point x="221" y="532"/>
      <point x="204" y="526"/>
      <point x="195" y="519" type="curve" smooth="yes"/>
      <point x="187" y="513"/>
      <point x="179" y="498"/>
      <point x="174" y="483" type="curve" smooth="yes"/>
      <point x="165" y="458"/>
      <point x="159" y="436"/>
      <point x="148" y="403" type="curve" smooth="yes"/>
      <point x="118" y="313"/>
      <point x="89" y="229"/>
      <point x="57" y="140" type="curve" smooth="yes"/>
      <point x="44" y="104"/>
      <point x="30" y="68"/>
      <point x="26" y="56" type="curve" smooth="yes"/>
      <point x="21" y="42"/>
      <point x="18" y="31"/>
      <point x="18" y="20" type="curve" smooth="yes"/>
      <point x="18" y="6"/>
      <point x="34" y="-9"/>
    </contour>
    <contour>
      <point x="403" y="-9" type="curve" smooth="yes"/>
      <point x="448" y="-9"/>
      <point x="472" y="3"/>
      <point x="478" y="23" type="curve" smooth="yes"/>
      <point x="481" y="33"/>
      <point x="492" y="66"/>
      <point x="504" y="104" type="curve" smooth="yes"/>
      <point x="527" y="177"/>
      <point x="557" y="270"/>
      <point x="593" y="366" type="curve" smooth="yes"/>
      <point x="609" y="409"/>
      <point x="620" y="436"/>
      <point x="630" y="460" type="curve" smooth="yes"/>
      <point x="640" y="485"/>
      <point x="643" y="495"/>
      <point x="643" y="503" type="curve" smooth="yes"/>
      <point x="643" y="520"/>
      <point x="622" y="532"/>
      <point x="582" y="532" type="curve" smooth="yes"/>
      <point x="546" y="532"/>
      <point x="529" y="526"/>
      <point x="520" y="519" type="curve" smooth="yes"/>
      <point x="512" y="513"/>
      <point x="504" y="498"/>
      <point x="499" y="483" type="curve" smooth="yes"/>
      <point x="490" y="458"/>
      <point x="484" y="436"/>
      <point x="473" y="403" type="curve" smooth="yes"/>
      <point x="443" y="313"/>
      <point x="414" y="229"/>
      <point x="382" y="140" type="curve" smooth="yes"/>
      <point x="369" y="104"/>
      <point x="355" y="68"/>
      <point x="351" y="56" type="curve" smooth="yes"/>
      <point x="346" y="42"/>
      <point x="343" y="31"/>
      <point x="343" y="20" type="curve" smooth="yes"/>
      <point x="343" y="6"/>
      <point x="359" y="-9"/>
    </contour>
  </outline>
</glyph>
<glyph name="uniA4E8" format="2">
  <advance width="546"/>
  <unicode hex="A4E8"/>
  <outline>
    <contour>
      <point x="246" y="105" type="curve" smooth="yes"/>
      <point x="213" y="105"/>
      <point x="192" y="123"/>
      <point x="181" y="147" type="curve" smooth="yes"/>
      <point x="166" y="179"/>
      <point x="161" y="184"/>
      <point x="140" y="184" type="curve" smooth="yes"/>
      <point x="114" y="184"/>
      <point x="55" y="156"/>
      <point x="55" y="125" type="curve" smooth="yes"/>
      <point x="55" y="96"/>
      <point x="87" y="51"/>
      <point x="115" y="29" type="curve" smooth="yes"/>
      <point x="141" y="8"/>
      <point x="175" y="-10"/>
      <point x="231" y="-10" type="curve" smooth="yes"/>
      <point x="401" y="-10"/>
      <point x="538" y="180"/>
      <point x="538" y="358" type="curve" smooth="yes"/>
      <point x="538" y="458"/>
      <point x="466" y="538"/>
      <point x="351" y="538" type="curve" smooth="yes"/>
      <point x="224" y="538"/>
      <point x="153" y="453"/>
      <point x="120" y="368" type="curve" smooth="yes"/>
      <point x="117" y="359"/>
      <point x="116" y="351"/>
      <point x="116" y="334" type="curve" smooth="yes"/>
      <point x="116" y="311"/>
      <point x="154" y="304"/>
      <point x="176" y="304" type="curve" smooth="yes"/>
      <point x="209" y="304"/>
      <point x="228" y="318"/>
      <point x="234" y="330" type="curve" smooth="yes"/>
      <point x="237" y="336"/>
      <point x="237" y="355"/>
      <point x="247" y="370" type="curve" smooth="yes"/>
      <point x="268" y="401"/>
      <point x="295" y="424"/>
      <point x="337" y="424" type="curve" smooth="yes"/>
      <point x="384" y="424"/>
      <point x="412" y="395"/>
      <point x="412" y="347" type="curve" smooth="yes"/>
      <point x="412" y="232"/>
      <point x="318" y="105"/>
    </contour>
    <contour>
      <point x="64" y="352" type="curve" smooth="yes"/>
      <point x="55" y="337"/>
      <point x="48" y="307"/>
      <point x="48" y="291" type="curve" smooth="yes"/>
      <point x="48" y="281"/>
      <point x="53" y="276"/>
      <point x="59" y="273" type="curve" smooth="yes"/>
      <point x="65" y="270"/>
      <point x="74" y="270"/>
      <point x="82" y="270" type="curve" smooth="yes"/>
      <point x="108" y="270"/>
      <point x="142" y="271"/>
      <point x="185" y="271" type="curve" smooth="yes"/>
      <point x="204" y="271"/>
      <point x="234" y="270"/>
      <point x="260" y="270" type="curve" smooth="yes"/>
      <point x="265" y="270"/>
      <point x="283" y="271"/>
      <point x="289" y="274" type="curve" smooth="yes"/>
      <point x="296" y="277"/>
      <point x="305" y="283"/>
      <point x="312" y="301" type="curve" smooth="yes"/>
      <point x="316" y="310"/>
      <point x="324" y="332"/>
      <point x="324" y="347" type="curve" smooth="yes"/>
      <point x="324" y="357"/>
      <point x="321" y="363"/>
      <point x="316" y="366" type="curve" smooth="yes"/>
      <point x="310" y="370"/>
      <point x="304" y="372"/>
      <point x="289" y="372" type="curve" smooth="yes"/>
      <point x="253" y="372"/>
      <point x="200" y="369"/>
      <point x="169" y="369" type="curve" smooth="yes"/>
      <point x="152" y="369"/>
      <point x="135" y="371"/>
      <point x="105" y="371" type="curve" smooth="yes"/>
      <point x="86" y="371"/>
      <point x="73" y="367"/>
    </contour>
  </outline>
</glyph>
<glyph name="uniA4EE" format="2">
  <advance width="551"/>
  <unicode hex="A4EE"/>
  <outline>
    <contour>
      <point x="149" y="90" type="curve" smooth="yes"/>
      <point x="190" y="169"/>
      <point x="276" y="305"/>
      <point x="315" y="362" type="curve" smooth="yes"/>
      <point x="337" y="394"/>
      <point x="348" y="409"/>
      <point x="354" y="409" type="curve" smooth="yes"/>
      <point x="360" y="409"/>
      <point x="361" y="398"/>
      <point x="361" y="371" type="curve" smooth="yes"/>
      <point x="360" y="282"/>
      <point x="353" y="129"/>
      <point x="350" y="70" type="curve" smooth="yes"/>
      <point x="349" y="41"/>
      <point x="349" y="34"/>
      <point x="349" y="29" type="curve" smooth="yes"/>
      <point x="349" y="10"/>
      <point x="359" y="-8"/>
      <point x="404" y="-8" type="curve" smooth="yes"/>
      <point x="462" y="-8"/>
      <point x="475" y="11"/>
      <point x="476" y="51" type="curve" smooth="yes"/>
      <point x="479" y="135"/>
      <point x="480" y="199"/>
      <point x="480" y="260" type="curve" smooth="yes"/>
      <point x="480" y="312"/>
      <point x="479" y="351"/>
      <point x="478" y="387" type="curve" smooth="yes"/>
      <point x="475" y="501"/>
      <point x="433" y="534"/>
      <point x="384" y="534" type="curve" smooth="yes"/>
      <point x="320" y="534"/>
      <point x="272" y="484"/>
      <point x="209" y="400" type="curve" smooth="yes"/>
      <point x="151" y="323"/>
      <point x="78" y="216"/>
      <point x="12" y="101" type="curve" smooth="yes"/>
      <point x="-7" y="68"/>
      <point x="-26" y="33"/>
      <point x="-26" y="23" type="curve" smooth="yes"/>
      <point x="-26" y="8"/>
      <point x="-18" y="-8"/>
      <point x="30" y="-8" type="curve" smooth="yes"/>
      <point x="74" y="-8"/>
      <point x="100" y="1"/>
      <point x="113" y="24" type="curve" smooth="yes"/>
      <point x="121" y="37"/>
      <point x="131" y="55"/>
    </contour>
    <contour>
      <point x="111" y="170" type="curve" smooth="yes"/>
      <point x="111" y="115"/>
      <point x="161" y="104"/>
      <point x="185" y="104" type="curve" smooth="yes"/>
      <point x="225" y="104"/>
      <point x="304" y="104"/>
      <point x="350" y="104" type="curve" smooth="yes"/>
      <point x="387" y="104"/>
      <point x="419" y="101"/>
      <point x="442" y="101" type="curve" smooth="yes"/>
      <point x="486" y="101"/>
      <point x="513" y="122"/>
      <point x="513" y="153" type="curve" smooth="yes"/>
      <point x="513" y="189"/>
      <point x="486" y="210"/>
      <point x="447" y="210" type="curve" smooth="yes"/>
      <point x="411" y="210"/>
      <point x="382" y="209"/>
      <point x="347" y="209" type="curve" smooth="yes"/>
      <point x="288" y="209"/>
      <point x="227" y="206"/>
      <point x="187" y="206" type="curve" smooth="yes"/>
      <point x="158" y="206"/>
      <point x="111" y="202"/>
    </contour>
  </outline>
</glyph>
<glyph name="uniA4F0" format="2">
  <advance width="510"/>
  <unicode hex="A4F0"/>
  <outline>
    <contour>
      <point x="215" y="530" type="curve" smooth="yes"/>
      <point x="188" y="530"/>
      <point x="176" y="529"/>
      <point x="157" y="527" type="curve" smooth="yes"/>
      <point x="142" y="525"/>
      <point x="130" y="520"/>
      <point x="124" y="514" type="curve" smooth="yes"/>
      <point x="116" y="506"/>
      <point x="112" y="491"/>
      <point x="112" y="477" type="curve" smooth="yes"/>
      <point x="112" y="464"/>
      <point x="117" y="452"/>
      <point x="122" y="445" type="curve" smooth="yes"/>
      <point x="136" y="426"/>
      <point x="154" y="423"/>
      <point x="190" y="423" type="curve" smooth="yes"/>
      <point x="218" y="423"/>
      <point x="305" y="424"/>
      <point x="324" y="424" type="curve" smooth="yes"/>
      <point x="384" y="424"/>
      <point x="349" y="424"/>
      <point x="406" y="424" type="curve" smooth="yes"/>
      <point x="422" y="424"/>
      <point x="450" y="423"/>
      <point x="465" y="423" type="curve" smooth="yes"/>
      <point x="513" y="423"/>
      <point x="527" y="432"/>
      <point x="537" y="444" type="curve" smooth="yes"/>
      <point x="544" y="453"/>
      <point x="550" y="469"/>
      <point x="550" y="484" type="curve" smooth="yes"/>
      <point x="550" y="509"/>
      <point x="528" y="532"/>
      <point x="491" y="532" type="curve" smooth="yes"/>
      <point x="429" y="532"/>
      <point x="279" y="530"/>
    </contour>
    <contour>
      <point x="212" y="172" type="curve" smooth="yes"/>
      <point x="237" y="246"/>
      <point x="245" y="269"/>
      <point x="278" y="363" type="curve" smooth="yes"/>
      <point x="293" y="406"/>
      <point x="312" y="451"/>
      <point x="326" y="494" type="curve" smooth="yes"/>
      <point x="328" y="500"/>
      <point x="329" y="503"/>
      <point x="329" y="507" type="curve" smooth="yes"/>
      <point x="329" y="518"/>
      <point x="314" y="529"/>
      <point x="264" y="529" type="curve" smooth="yes"/>
      <point x="225" y="529"/>
      <point x="210" y="520"/>
      <point x="204" y="514" type="curve" smooth="yes"/>
      <point x="200" y="510"/>
      <point x="192" y="495"/>
      <point x="187" y="481" type="curve" smooth="yes"/>
      <point x="175" y="448"/>
      <point x="170" y="433"/>
      <point x="159" y="400" type="curve" smooth="yes"/>
      <point x="130" y="312"/>
      <point x="102" y="228"/>
      <point x="69" y="140" type="curve" smooth="yes"/>
      <point x="56" y="105"/>
      <point x="40" y="61"/>
      <point x="40" y="47" type="curve" smooth="yes"/>
      <point x="40" y="24"/>
      <point x="55" y="3"/>
      <point x="85" y="-2" type="curve" smooth="yes"/>
      <point x="107" y="-6"/>
      <point x="161" y="-6"/>
      <point x="185" y="-6" type="curve" smooth="yes"/>
      <point x="222" y="-6"/>
      <point x="272" y="-4"/>
      <point x="299" y="-4" type="curve" smooth="yes"/>
      <point x="320" y="-4"/>
      <point x="363" y="-5"/>
      <point x="374" y="-5" type="curve" smooth="yes"/>
      <point x="422" y="-5"/>
      <point x="435" y="29"/>
      <point x="435" y="49" type="curve" smooth="yes"/>
      <point x="435" y="63"/>
      <point x="427" y="77"/>
      <point x="418" y="85" type="curve" smooth="yes"/>
      <point x="407" y="94"/>
      <point x="392" y="104"/>
      <point x="350" y="104" type="curve" smooth="yes"/>
      <point x="319" y="104"/>
      <point x="242" y="102"/>
      <point x="233" y="102" type="curve" smooth="yes"/>
      <point x="229" y="102"/>
      <point x="215" y="103"/>
      <point x="209" y="105" type="curve" smooth="yes"/>
      <point x="202" y="108"/>
      <point x="198" y="114"/>
      <point x="198" y="121" type="curve" smooth="yes"/>
      <point x="198" y="130"/>
      <point x="207" y="157"/>
    </contour>
    <contour>
      <point x="433" y="306" type="curve" smooth="yes"/>
      <point x="426" y="313"/>
      <point x="411" y="323"/>
      <point x="381" y="323" type="curve" smooth="yes"/>
      <point x="344" y="323"/>
      <point x="309" y="322"/>
      <point x="275" y="322" type="curve" smooth="yes"/>
      <point x="230" y="322"/>
      <point x="163" y="325"/>
      <point x="130" y="325" type="curve" smooth="yes"/>
      <point x="91" y="325"/>
      <point x="74" y="295"/>
      <point x="74" y="273" type="curve" smooth="yes"/>
      <point x="74" y="251"/>
      <point x="84" y="240"/>
      <point x="96" y="232" type="curve" smooth="yes"/>
      <point x="110" y="223"/>
      <point x="130" y="218"/>
      <point x="146" y="218" type="curve" smooth="yes"/>
      <point x="171" y="218"/>
      <point x="225" y="219"/>
      <point x="260" y="219" type="curve" smooth="yes"/>
      <point x="317" y="219"/>
      <point x="348" y="218"/>
      <point x="368" y="218" type="curve" smooth="yes"/>
      <point x="410" y="218"/>
      <point x="429" y="225"/>
      <point x="436" y="234" type="curve" smooth="yes"/>
      <point x="443" y="242"/>
      <point x="448" y="254"/>
      <point x="448" y="269" type="curve" smooth="yes"/>
      <point x="448" y="288"/>
      <point x="442" y="297"/>
    </contour>
  </outline>
</glyph>
<glyph name="uniA4F1" format="2">
  <advance width="504"/>
  <unicode hex="A4F1"/>
  <outline>
    <contour>
      <point x="108" y="233" type="curve" smooth="yes"/>
      <point x="119" y="223"/>
      <point x="135" y="217"/>
      <point x="154" y="217" type="curve" smooth="yes"/>
      <point x="191" y="217"/>
      <point x="241" y="218"/>
      <point x="275" y="218" type="curve" smooth="yes"/>
      <point x="320" y="218"/>
      <point x="372" y="216"/>
      <point x="405" y="216" type="curve" smooth="yes"/>
      <point x="439" y="216"/>
      <point x="466" y="237"/>
      <point x="466" y="271" type="curve" smooth="yes"/>
      <point x="466" y="300"/>
      <point x="447" y="312"/>
      <point x="438" y="316" type="curve" smooth="yes"/>
      <point x="429" y="320"/>
      <point x="419" y="321"/>
      <point x="396" y="321" type="curve" smooth="yes"/>
      <point x="370" y="321"/>
      <point x="325" y="321"/>
      <point x="290" y="321" type="curve" smooth="yes"/>
      <point x="233" y="321"/>
      <point x="172" y="322"/>
      <point x="152" y="322" type="curve" smooth="yes"/>
      <point x="130" y="322"/>
      <point x="117" y="317"/>
      <point x="109" y="309" type="curve" smooth="yes"/>
      <point x="101" y="301"/>
      <point x="93" y="285"/>
      <point x="93" y="271" type="curve" smooth="yes"/>
      <point x="93" y="252"/>
      <point x="102" y="239"/>
    </contour>
    <contour>
      <point x="90" y="99" type="curve" smooth="yes"/>
      <point x="63" y="99"/>
      <point x="40" y="101"/>
      <point x="22" y="101" type="curve" smooth="yes"/>
      <point x="4" y="101"/>
      <point x="-13" y="86"/>
      <point x="-13" y="55" type="curve" smooth="yes"/>
      <point x="-13" y="36"/>
      <point x="4" y="18"/>
      <point x="16" y="10" type="curve" smooth="yes"/>
      <point x="28" y="2"/>
      <point x="56" y="-8"/>
      <point x="77" y="-8" type="curve" smooth="yes"/>
      <point x="103" y="-8"/>
      <point x="134" y="-7"/>
      <point x="184" y="-7" type="curve" smooth="yes"/>
      <point x="244" y="-7"/>
      <point x="256" y="-6"/>
      <point x="283" y="-6" type="curve" smooth="yes"/>
      <point x="319" y="-6"/>
      <point x="332" y="-7"/>
      <point x="347" y="-7" type="curve" smooth="yes"/>
      <point x="367" y="-7"/>
      <point x="382" y="-3"/>
      <point x="389" y="0" type="curve" smooth="yes"/>
      <point x="400" y="5"/>
      <point x="415" y="17"/>
      <point x="415" y="38" type="curve" smooth="yes"/>
      <point x="415" y="88"/>
      <point x="366" y="101"/>
      <point x="326" y="101" type="curve" smooth="yes"/>
      <point x="264" y="101"/>
      <point x="154" y="99"/>
    </contour>
    <contour>
      <point x="280" y="-5" type="curve" smooth="yes"/>
      <point x="312" y="-5"/>
      <point x="343" y="5"/>
      <point x="348" y="22" type="curve" smooth="yes"/>
      <point x="353" y="38"/>
      <point x="364" y="78"/>
      <point x="373" y="104" type="curve" smooth="yes"/>
      <point x="402" y="185"/>
      <point x="439" y="292"/>
      <point x="464" y="363" type="curve" smooth="yes"/>
      <point x="473" y="388"/>
      <point x="498" y="458"/>
      <point x="498" y="475" type="curve" smooth="yes"/>
      <point x="498" y="487"/>
      <point x="496" y="498"/>
      <point x="490" y="506" type="curve" smooth="yes"/>
      <point x="482" y="517"/>
      <point x="468" y="524"/>
      <point x="456" y="527" type="curve" smooth="yes"/>
      <point x="434" y="532"/>
      <point x="385" y="532"/>
      <point x="361" y="532" type="curve" smooth="yes"/>
      <point x="324" y="532"/>
      <point x="284" y="530"/>
      <point x="258" y="530" type="curve" smooth="yes"/>
      <point x="236" y="530"/>
      <point x="213" y="531"/>
      <point x="182" y="531" type="curve" smooth="yes"/>
      <point x="135" y="531"/>
      <point x="112" y="511"/>
      <point x="112" y="484" type="curve" smooth="yes"/>
      <point x="112" y="470"/>
      <point x="120" y="453"/>
      <point x="126" y="446" type="curve" smooth="yes"/>
      <point x="136" y="434"/>
      <point x="156" y="423"/>
      <point x="193" y="423" type="curve" smooth="yes"/>
      <point x="224" y="423"/>
      <point x="257" y="424"/>
      <point x="287" y="424" type="curve" smooth="yes"/>
      <point x="313" y="424"/>
      <point x="328" y="424"/>
      <point x="338" y="422" type="curve" smooth="yes"/>
      <point x="344" y="421"/>
      <point x="346" y="417"/>
      <point x="346" y="413" type="curve" smooth="yes"/>
      <point x="346" y="403"/>
      <point x="340" y="386"/>
      <point x="329" y="355" type="curve" smooth="yes"/>
      <point x="319" y="327"/>
      <point x="284" y="225"/>
      <point x="254" y="140" type="curve" smooth="yes"/>
      <point x="241" y="104"/>
      <point x="228" y="73"/>
      <point x="215" y="35" type="curve" smooth="yes"/>
      <point x="213" y="29"/>
      <point x="211" y="23"/>
      <point x="211" y="16" type="curve" smooth="yes"/>
      <point x="211" y="8"/>
      <point x="248" y="-5"/>
    </contour>
  </outline>
</glyph>
<glyph name="uniA4F5" format="2">
  <advance width="587"/>
  <unicode hex="A4F5"/>
  <outline>
    <contour>
      <point x="468" y="49" type="curve" smooth="yes"/>
      <point x="489" y="105"/>
      <point x="504" y="147"/>
      <point x="527" y="216" type="curve" smooth="yes"/>
      <point x="549" y="281"/>
      <point x="561" y="337"/>
      <point x="561" y="381" type="curve" smooth="yes"/>
      <point x="561" y="469"/>
      <point x="495" y="538"/>
      <point x="396" y="538" type="curve" smooth="yes"/>
      <point x="324" y="538"/>
      <point x="259" y="516"/>
      <point x="210" y="471" type="curve" smooth="yes"/>
      <point x="168" y="432"/>
      <point x="149" y="395"/>
      <point x="129" y="354" type="curve" smooth="yes"/>
      <point x="100" y="295"/>
      <point x="71" y="226"/>
      <point x="33" y="119" type="curve" smooth="yes"/>
      <point x="27" y="102"/>
      <point x="7" y="53"/>
      <point x="4" y="46" type="curve" smooth="yes"/>
      <point x="0" y="37"/>
      <point x="-2" y="29"/>
      <point x="-2" y="21" type="curve" smooth="yes"/>
      <point x="-2" y="16"/>
      <point x="-1" y="10"/>
      <point x="6" y="4" type="curve" smooth="yes"/>
      <point x="11" y="0"/>
      <point x="23" y="-9"/>
      <point x="61" y="-9" type="curve" smooth="yes"/>
      <point x="98" y="-9"/>
      <point x="114" y="2"/>
      <point x="122" y="9" type="curve" smooth="yes"/>
      <point x="127" y="13"/>
      <point x="133" y="24"/>
      <point x="137" y="35" type="curve" smooth="yes"/>
      <point x="142" y="48"/>
      <point x="152" y="74"/>
      <point x="163" y="109" type="curve" smooth="yes"/>
      <point x="179" y="159"/>
      <point x="203" y="228"/>
      <point x="231" y="292" type="curve" smooth="yes"/>
      <point x="272" y="386"/>
      <point x="324" y="424"/>
      <point x="371" y="424" type="curve" smooth="yes"/>
      <point x="413" y="424"/>
      <point x="433" y="398"/>
      <point x="433" y="364" type="curve" smooth="yes"/>
      <point x="433" y="333"/>
      <point x="416" y="277"/>
      <point x="396" y="219" type="curve" smooth="yes"/>
      <point x="372" y="151"/>
      <point x="357" y="121"/>
      <point x="335" y="63" type="curve" smooth="yes"/>
      <point x="330" y="49"/>
      <point x="323" y="29"/>
      <point x="323" y="21" type="curve" smooth="yes"/>
      <point x="323" y="5"/>
      <point x="340" y="-9"/>
      <point x="384" y="-9" type="curve" smooth="yes"/>
      <point x="417" y="-9"/>
      <point x="435" y="-2"/>
      <point x="446" y="7" type="curve" smooth="yes"/>
      <point x="455" y="14"/>
      <point x="462" y="32"/>
    </contour>
  </outline>
</glyph>
<glyph name="uniA4F8" format="2">
  <advance width="208"/>
  <unicode hex="A4F8"/>
  <guideline x="99" y="198" angle="71"/>
  <outline>
    <contour>
      <point x="125" y="89" type="curve" smooth="yes"/>
      <point x="125" y="117"/>
      <point x="109" y="145"/>
      <point x="75" y="145" type="curve" smooth="yes"/>
      <point x="24" y="145"/>
      <point x="-16" y="93"/>
      <point x="-16" y="47" type="curve" smooth="yes"/>
      <point x="-16" y="18"/>
      <point x="0" y="-7"/>
      <point x="34" y="-7" type="curve" smooth="yes"/>
      <point x="85" y="-7"/>
      <point x="125" y="43"/>
    </contour>
  </outline>
</glyph>
<glyph name="uniA4FA" format="2">
  <advance width="409"/>
  <unicode hex="A4FA"/>
  <outline>
    <contour>
      <point x="125" y="89" type="curve" smooth="yes"/>
      <point x="125" y="117"/>
      <point x="109" y="145"/>
      <point x="75" y="145" type="curve" smooth="yes"/>
      <point x="24" y="145"/>
      <point x="-16" y="93"/>
      <point x="-16" y="47" type="curve" smooth="yes"/>
      <point x="-16" y="18"/>
      <point x="0" y="-7"/>
      <point x="34" y="-7" type="curve" smooth="yes"/>
      <point x="85" y="-7"/>
      <point x="125" y="43"/>
    </contour>
    <contour>
      <point x="333" y="89" type="curve" smooth="yes"/>
      <point x="333" y="117"/>
      <point x="317" y="145"/>
      <point x="283" y="145" type="curve" smooth="yes"/>
      <point x="232" y="145"/>
      <point x="192" y="93"/>
      <point x="192" y="47" type="curve" smooth="yes"/>
      <point x="192" y="18"/>
      <point x="208" y="-7"/>
      <point x="242" y="-7" type="curve" smooth="yes"/>
      <point x="293" y="-7"/>
      <point x="333" y="43"/>
    </contour>
  </outline>
</glyph>
<glyph name="uniA4FC" format="2">
  <advance width="224"/>
  <unicode hex="A4FC"/>
  <guideline x="110" y="198" angle="71"/>
  <outline>
    <contour>
      <point x="-64" y="-114" type="curve" smooth="yes"/>
      <point x="-27" y="-114"/>
      <point x="36" y="-84"/>
      <point x="69" y="-44" type="curve" smooth="yes"/>
      <point x="101" y="-6"/>
      <point x="143" y="59"/>
      <point x="143" y="110" type="curve" smooth="yes"/>
      <point x="143" y="132"/>
      <point x="118" y="145"/>
      <point x="91" y="145" type="curve" smooth="yes"/>
      <point x="54" y="145"/>
      <point x="28" y="139"/>
      <point x="21" y="112" type="curve" smooth="yes"/>
      <point x="18" y="103"/>
      <point x="14" y="87"/>
      <point x="8" y="69" type="curve" smooth="yes"/>
      <point x="-15" y="-5"/>
      <point x="-54" y="-51"/>
      <point x="-77" y="-77" type="curve" smooth="yes"/>
      <point x="-88" y="-89"/>
      <point x="-90" y="-100"/>
      <point x="-90" y="-105" type="curve" smooth="yes"/>
      <point x="-90" y="-112"/>
      <point x="-80" y="-114"/>
    </contour>
    <contour>
      <point x="220" y="333" type="curve" smooth="yes"/>
      <point x="220" y="361"/>
      <point x="204" y="389"/>
      <point x="170" y="389" type="curve" smooth="yes"/>
      <point x="119" y="389"/>
      <point x="79" y="337"/>
      <point x="79" y="291" type="curve" smooth="yes"/>
      <point x="79" y="262"/>
      <point x="95" y="237"/>
      <point x="129" y="237" type="curve" smooth="yes"/>
      <point x="180" y="237"/>
      <point x="220" y="287"/>
    </contour>
  </outline>
</glyph>
<glyph name="f_l" format="2">
  <advance width="546"/>
  <unicode hex="FB02"/>
  <outline>
    <contour>
      <point x="396" y="-12" type="curve" smooth="yes"/>
      <point x="470" y="-12"/>
      <point x="524" y="46"/>
      <point x="562" y="104" type="curve"/>
      <point x="536" y="123" type="line"/>
      <point x="504" y="83"/>
      <point x="479" y="62"/>
      <point x="462" y="62" type="curve" smooth="yes"/>
      <point x="452" y="62"/>
      <point x="444" y="69"/>
      <point x="444" y="82" type="curve" smooth="yes"/>
      <point x="444" y="92"/>
      <point x="446" y="107"/>
      <point x="451" y="127" type="curve" smooth="yes"/>
      <point x="562" y="658" type="line"/>
      <point x="549" y="668" type="line"/>
      <point x="441" y="632" type="line"/>
      <point x="430" y="554"/>
      <point x="414" y="472"/>
      <point x="402" y="408" type="curve" smooth="yes"/>
      <point x="346" y="138" type="line" smooth="yes"/>
      <point x="337" y="92"/>
      <point x="333" y="66"/>
      <point x="333" y="46" type="curve" smooth="yes"/>
      <point x="333" y="7"/>
      <point x="358" y="-12"/>
    </contour>
    <contour>
      <point x="357" y="681" type="curve" smooth="yes"/>
      <point x="246" y="681"/>
      <point x="159" y="589"/>
      <point x="133" y="426" type="curve" smooth="yes"/>
      <point x="112" y="293"/>
      <point x="95" y="167"/>
      <point x="75" y="39" type="curve" smooth="yes"/>
      <point x="61" y="-37"/>
      <point x="49" y="-89"/>
      <point x="30" y="-129" type="curve" smooth="yes"/>
      <point x="15" y="-160"/>
      <point x="0" y="-177"/>
      <point x="-16" y="-193" type="curve"/>
      <point x="8" y="-190" type="line"/>
      <point x="-18" y="-156" type="line" smooth="yes"/>
      <point x="-38" y="-128"/>
      <point x="-61" y="-110"/>
      <point x="-91" y="-110" type="curve" smooth="yes"/>
      <point x="-119" y="-110"/>
      <point x="-138" y="-129"/>
      <point x="-141" y="-156" type="curve"/>
      <point x="-125" y="-202"/>
      <point x="-82" y="-222"/>
      <point x="-32" y="-222" type="curve" smooth="yes"/>
      <point x="4" y="-222"/>
      <point x="48" y="-205"/>
      <point x="86" y="-167" type="curve" smooth="yes"/>
      <point x="132" y="-121"/>
      <point x="158" y="-53"/>
      <point x="175" y="39" type="curve" smooth="yes"/>
      <point x="201" y="171"/>
      <point x="219" y="317"/>
      <point x="242" y="457" type="curve" smooth="yes"/>
      <point x="267" y="608"/>
      <point x="316" y="646"/>
      <point x="370" y="665" type="curve"/>
      <point x="321" y="660" type="line"/>
      <point x="347" y="620" type="line" smooth="yes"/>
      <point x="369" y="587"/>
      <point x="390" y="574"/>
      <point x="420" y="574" type="curve" smooth="yes"/>
      <point x="439" y="574"/>
      <point x="458" y="589"/>
      <point x="462" y="615" type="curve"/>
      <point x="453" y="652"/>
      <point x="412" y="681"/>
    </contour>
    <contour>
      <point x="48" y="392" type="line"/>
      <point x="160" y="392" type="line"/>
      <point x="344" y="387" type="line"/>
      <point x="353" y="441" type="line"/>
      <point x="168" y="441" type="line"/>
      <point x="168" y="446" type="line"/>
      <point x="57" y="433" type="line"/>
    </contour>
  </outline>
</glyph>
<glyph name="u11FB0" format="2">
  <advance width="535"/>
  <unicode hex="11FB0"/>
  <outline>
    <contour>
      <point x="377" y="532" type="curve" smooth="yes"/>
      <point x="421" y="532"/>
      <point x="437" y="524"/>
      <point x="437" y="503" type="curve" smooth="yes"/>
      <point x="437" y="496"/>
      <point x="435" y="484"/>
      <point x="427" y="464" type="curve" smooth="yes"/>
      <point x="416" y="436"/>
      <point x="373" y="329"/>
      <point x="352" y="275" type="curve"/>
      <point x="307" y="235"/>
      <point x="191" y="131"/>
      <point x="132" y="57" type="curve" smooth="yes"/>
      <point x="101" y="19"/>
      <point x="91" y="7"/>
      <point x="79" y="0" type="curve" smooth="yes"/>
      <point x="66" y="-8"/>
      <point x="53" y="-10"/>
      <point x="24" y="-10" type="curve" smooth="yes"/>
      <point x="-8" y="-10"/>
      <point x="-43" y="1"/>
      <point x="-43" y="22" type="curve" smooth="yes"/>
      <point x="-43" y="33"/>
      <point x="-30" y="54"/>
      <point x="-14" y="73" type="curve" smooth="yes"/>
      <point x="28" y="123"/>
      <point x="120" y="213"/>
      <point x="180" y="269" type="curve" smooth="yes"/>
      <point x="207" y="295"/>
      <point x="223" y="307"/>
      <point x="227" y="314" type="curve" smooth="yes"/>
      <point x="251" y="357"/>
      <point x="279" y="442"/>
      <point x="298" y="501" type="curve" smooth="yes"/>
      <point x="305" y="524"/>
      <point x="328" y="532"/>
    </contour>
    <contour>
      <point x="315" y="322" type="curve" smooth="yes"/>
      <point x="351" y="322"/>
      <point x="359" y="318"/>
      <point x="362" y="310" type="curve" smooth="yes"/>
      <point x="364" y="305"/>
      <point x="369" y="284"/>
      <point x="379" y="258" type="curve" smooth="yes"/>
      <point x="410" y="181"/>
      <point x="434" y="113"/>
      <point x="440" y="95" type="curve" smooth="yes"/>
      <point x="449" y="69"/>
      <point x="455" y="49"/>
      <point x="455" y="33" type="curve" smooth="yes"/>
      <point x="455" y="0"/>
      <point x="431" y="-10"/>
      <point x="386" y="-10" type="curve" smooth="yes"/>
      <point x="356" y="-10"/>
      <point x="335" y="-1"/>
      <point x="329" y="15" type="curve" smooth="yes"/>
      <point x="325" y="25"/>
      <point x="320" y="51"/>
      <point x="313" y="76" type="curve" smooth="yes"/>
      <point x="305" y="106"/>
      <point x="292" y="151"/>
      <point x="266" y="216" type="curve" smooth="yes"/>
      <point x="256" y="240"/>
      <point x="247" y="266"/>
      <point x="247" y="279" type="curve" smooth="yes"/>
      <point x="247" y="305"/>
      <point x="288" y="322"/>
    </contour>
  </outline>
</glyph>
